<svg width="160" height="53" viewBox="0 0 160 53" fill="none" xmlns="http://www.w3.org/2000/svg">
<path d="M152.624 1.93213H7.37691C4.05082 1.93213 1.35449 4.62141 1.35449 7.9388V45.0661C1.35449 48.3835 4.05082 51.0728 7.37691 51.0728H152.624C155.95 51.0728 158.646 48.3835 158.646 45.0661V7.9388C158.646 4.62141 155.95 1.93213 152.624 1.93213Z" fill="black" stroke="black"/>
<mask id="mask0_2016_4290" style="mask-type:luminance" maskUnits="userSpaceOnUse" x="1" y="0" width="158" height="53">
<path d="M159 0.68457H1V52.3122H159V0.68457Z" fill="white"/>
</mask>
<g mask="url(#mask0_2016_4290)">
<path d="M33.7034 26.8878C33.7175 25.8105 34.0103 24.7543 34.5543 23.8173C35.0983 22.8802 35.876 22.093 36.8148 21.5287C36.2184 20.6961 35.4315 20.0108 34.5168 19.5273C33.602 19.0439 32.5845 18.7756 31.5451 18.7438C29.3279 18.5164 27.1784 20.0408 26.0485 20.0408C24.8968 20.0408 23.1573 18.7665 21.284 18.8041C20.0724 18.8424 18.8915 19.1869 17.8565 19.8038C16.8215 20.4209 15.9676 21.2895 15.3781 22.3249C12.8246 26.6468 14.7293 32.9983 17.1754 36.4917C18.3993 38.2023 19.8296 40.1131 21.7011 40.0454C23.5326 39.9711 24.2166 38.9038 26.4272 38.9038C28.6174 38.9038 29.2591 40.0454 31.1686 40.0023C33.1339 39.9711 34.372 38.284 35.553 36.5572C36.4322 35.3384 37.1089 33.9912 37.5578 32.5658C36.4161 32.0937 35.4417 31.3036 34.7563 30.2939C34.0709 29.2842 33.7047 28.0996 33.7034 26.8878Z" fill="white"/>
<path d="M30.0972 16.4438C31.1687 15.1864 31.6966 13.5702 31.5688 11.9385C29.9317 12.1066 28.4195 12.8714 27.3336 14.0805C26.8026 14.6712 26.3959 15.3585 26.1368 16.1029C25.8777 16.8473 25.7712 17.6344 25.8235 18.419C26.6423 18.4273 27.4523 18.2538 28.1926 17.9116C28.9329 17.5695 29.5841 17.0676 30.0972 16.4438Z" fill="white"/>
<path d="M56.8535 35.7137H50.6037L49.1028 40.0458H46.4556L52.3753 24.0181H55.1257L61.0454 40.0458H58.353L56.8535 35.7137ZM51.251 33.7147H56.2049L53.7628 26.6839H53.6944L51.251 33.7147Z" fill="white"/>
<path d="M73.8291 34.2042C73.8291 37.8354 71.8411 40.1685 68.8407 40.1685C68.0806 40.2074 67.3246 40.0362 66.6595 39.6747C65.9943 39.3131 65.4467 38.7757 65.0794 38.1241H65.0227V43.912H62.5688V28.3607H64.944V30.3044H64.9892C65.3733 29.6558 65.9301 29.1212 66.6004 28.7575C67.2707 28.3937 68.0293 28.2143 68.7955 28.2385C71.8295 28.2385 73.8291 30.5829 73.8291 34.2042ZM71.3073 34.2042C71.3073 31.8383 70.0566 30.2829 68.1482 30.2829C66.2734 30.2829 65.0123 31.871 65.0123 34.2042C65.0123 36.5586 66.2734 38.1354 68.1482 38.1354C70.0566 38.1354 71.3073 36.5914 71.3073 34.2042Z" fill="white"/>
<path d="M86.9871 34.2042C86.9871 37.8354 84.999 40.1685 81.9984 40.1685C81.2381 40.2074 80.4821 40.0362 79.8168 39.6747C79.1515 39.3131 78.6039 38.7757 78.2368 38.124H78.1802V43.912H75.7266V28.3607H78.1015V30.3044H78.1469C78.5309 29.6558 79.0878 29.1212 79.758 28.7575C80.4283 28.3937 81.1864 28.2143 81.953 28.2385C84.9869 28.2385 86.9871 30.5829 86.9871 34.2042ZM84.4647 34.2042C84.4647 31.8383 83.2142 30.2829 81.3055 30.2829C79.4307 30.2829 78.1695 31.871 78.1695 34.2042C78.1695 36.5586 79.4307 38.1354 81.3055 38.1354C83.2142 38.1354 84.4647 36.5914 84.4647 34.2042Z" fill="white"/>
<path d="M95.6831 35.5798C95.8652 37.1692 97.4445 38.2128 99.6026 38.2128C101.671 38.2128 103.159 37.1692 103.159 35.736C103.159 34.492 102.262 33.7471 100.137 33.2366L98.012 32.7362C95.0008 32.0253 93.6036 30.6489 93.6036 28.4153C93.6036 25.6499 96.0685 23.7505 99.5693 23.7505C103.034 23.7505 105.409 25.6499 105.489 28.4153H103.012C102.864 26.8159 101.511 25.8503 99.5346 25.8503C97.5578 25.8503 96.2053 26.8272 96.2053 28.249C96.2053 29.3821 97.069 30.0489 99.1825 30.5594L100.989 30.9929C104.353 31.7706 105.751 33.0916 105.751 35.436C105.751 38.4346 103.307 40.3126 99.4212 40.3126C95.7851 40.3126 93.3301 38.4787 93.1714 35.5797L95.6831 35.5798Z" fill="white"/>
<path d="M111.046 25.5918V28.3573H113.32V30.2567H111.046V36.6988C111.046 37.6996 111.502 38.1659 112.501 38.1659C112.771 38.1613 113.04 38.1428 113.309 38.1105V39.9986C112.859 40.0807 112.402 40.1178 111.945 40.1096C109.525 40.1096 108.581 39.2209 108.581 36.9546V30.2567H106.843V28.3573H108.581V25.5918H111.046Z" fill="white"/>
<path d="M114.637 34.201C114.637 30.5242 116.852 28.2139 120.307 28.2139C123.773 28.2139 125.977 30.5242 125.977 34.201C125.977 37.8877 123.784 40.1881 120.307 40.1881C116.83 40.1881 114.637 37.8877 114.637 34.201ZM123.477 34.201C123.477 31.6788 122.295 30.1902 120.307 30.1902C118.318 30.1902 117.137 31.6902 117.137 34.201C117.137 36.7332 118.318 38.2104 120.307 38.2104C122.295 38.2104 123.477 36.7332 123.477 34.201Z" fill="white"/>
<path d="M127.999 28.3606H130.339V30.3496H130.396C130.555 29.7284 130.927 29.1794 131.45 28.7949C131.974 28.4105 132.617 28.2139 133.272 28.2384C133.555 28.2374 133.837 28.2674 134.112 28.3279V30.5714C133.755 30.4648 133.383 30.4159 133.01 30.4265C132.653 30.4124 132.298 30.4738 131.968 30.6066C131.638 30.7394 131.342 30.9404 131.099 31.1958C130.856 31.4512 130.672 31.755 130.561 32.0863C130.449 32.4176 130.412 32.7685 130.453 33.115V40.0462H127.999V28.3606Z" fill="white"/>
<path d="M145.427 36.6109C145.097 38.7322 142.983 40.1881 140.279 40.1881C136.802 40.1881 134.643 37.9104 134.643 34.2564C134.643 30.591 136.813 28.2139 140.176 28.2139C143.483 28.2139 145.563 30.4347 145.563 33.9779V34.7996H137.12V34.9446C137.081 35.3747 137.136 35.8079 137.282 36.2155C137.427 36.6232 137.66 36.996 137.964 37.309C138.268 37.6221 138.637 37.8683 139.046 38.0313C139.455 38.1943 139.895 38.2704 140.336 38.2545C140.916 38.3076 141.497 38.1763 141.995 37.8802C142.493 37.5841 142.879 37.1389 143.096 36.6109H145.427ZM137.131 33.1233H143.108C143.13 32.7366 143.07 32.3496 142.932 31.9867C142.794 31.6237 142.581 31.2926 142.305 31.0141C142.029 30.7356 141.699 30.5158 141.332 30.3684C140.966 30.2209 140.572 30.1491 140.176 30.1575C139.776 30.1552 139.38 30.2302 139.01 30.3782C138.641 30.5264 138.305 30.7446 138.022 31.0203C137.739 31.2961 137.514 31.6238 137.362 31.9848C137.209 32.3457 137.131 32.7326 137.131 33.1233Z" fill="white"/>
<path d="M50.9438 11.9502C51.4583 11.914 51.9745 11.99 52.4553 12.1726C52.9361 12.3551 53.3694 12.6397 53.724 13.0058C54.0786 13.3718 54.3457 13.8103 54.506 14.2895C54.6663 14.7687 54.7158 15.2767 54.651 15.7768C54.651 18.2372 53.2906 19.6515 50.9438 19.6515H48.0981V11.9502H50.9438ZM49.3218 18.5624H50.8072C51.1748 18.5838 51.5427 18.5249 51.8841 18.3899C52.2254 18.2549 52.5316 18.0471 52.7805 17.7819C53.0294 17.5165 53.2147 17.2003 53.3227 16.8561C53.4308 16.512 53.459 16.1487 53.4054 15.7925C53.4551 15.4378 53.424 15.0767 53.3143 14.7351C53.2046 14.3935 53.0189 14.0799 52.7705 13.8167C52.5223 13.5534 52.2175 13.3472 51.878 13.2127C51.5386 13.0781 51.1729 13.0186 50.8072 13.0385H49.3218V18.5624Z" fill="white"/>
<path d="M56.0328 16.7455C55.9954 16.3636 56.0401 15.9782 56.164 15.6142C56.2879 15.2501 56.4883 14.9153 56.7523 14.6314C57.0163 14.3475 57.3381 14.1206 57.697 13.9654C58.056 13.8102 58.4442 13.73 58.8366 13.73C59.2291 13.73 59.6173 13.8102 59.9763 13.9654C60.3352 14.1206 60.657 14.3475 60.921 14.6314C61.185 14.9153 61.3854 15.2501 61.5093 15.6142C61.6331 15.9782 61.6778 16.3636 61.6405 16.7455C61.6785 17.1278 61.6344 17.5138 61.5108 17.8784C61.3873 18.243 61.187 18.5783 60.9229 18.8629C60.6588 19.1474 60.3368 19.3747 59.9775 19.5302C59.6182 19.6858 59.2296 19.7662 58.8366 19.7662C58.4437 19.7662 58.055 19.6858 57.6957 19.5302C57.3365 19.3747 57.0144 19.1474 56.7504 18.8629C56.4863 18.5783 56.286 18.243 56.1624 17.8784C56.0389 17.5138 55.9947 17.1278 56.0328 16.7455ZM60.4335 16.7455C60.4335 15.4857 59.8546 14.749 58.8386 14.749C57.8186 14.749 57.2449 15.4857 57.2449 16.7455C57.2449 18.0154 57.8187 18.7465 58.8386 18.7465C59.8547 18.7465 60.4335 18.0103 60.4335 16.7455Z" fill="white"/>
<path d="M69.0957 19.6552H67.8785L66.6497 15.3747H66.5569L65.3332 19.6552H64.1276L62.4888 13.8433H63.6789L64.7439 18.2781H64.8316L66.054 13.8433H67.1797L68.402 18.2781H68.4948L69.5548 13.8433H70.7281L69.0957 19.6552Z" fill="white"/>
<path d="M72.106 13.8425H73.236V14.7657H73.3232C73.472 14.4342 73.7228 14.1562 74.0409 13.9706C74.359 13.785 74.7282 13.701 75.0973 13.7303C75.3871 13.7091 75.6776 13.7517 75.9476 13.8551C76.2175 13.9584 76.4605 14.1199 76.6582 14.3275C76.8559 14.5351 77.0032 14.7835 77.089 15.0543C77.1754 15.3251 77.1981 15.6114 77.1556 15.892V19.6543H75.9823V16.18C75.9823 15.246 75.5671 14.7815 74.6991 14.7815C74.5029 14.7726 74.3066 14.8052 74.1245 14.8773C73.9424 14.9494 73.7781 15.0591 73.6434 15.199C73.5081 15.3389 73.4061 15.5056 73.343 15.6878C73.2807 15.87 73.2587 16.0632 73.2793 16.2543V19.6544H72.106V13.8425Z" fill="white"/>
<path d="M79.0239 11.5742H80.1972V19.6549H79.0239V11.5742Z" fill="white"/>
<path d="M81.8297 16.7456C81.7922 16.3637 81.8375 15.9783 81.9608 15.6142C82.0848 15.2501 82.2853 14.9154 82.5496 14.6315C82.8138 14.3475 83.1355 14.1206 83.494 13.9654C83.8532 13.8102 84.2415 13.73 84.634 13.73C85.0265 13.73 85.4148 13.8102 85.7733 13.9654C86.1325 14.1206 86.4542 14.3475 86.7185 14.6315C86.9828 14.9154 87.1826 15.2501 87.3066 15.6142C87.4306 15.9783 87.4752 16.3637 87.4383 16.7456C87.4759 17.128 87.432 17.5139 87.3087 17.8785C87.1847 18.2432 86.9842 18.5785 86.7206 18.863C86.4563 19.1474 86.134 19.3748 85.7747 19.5304C85.4155 19.6859 85.0273 19.7663 84.634 19.7663C84.2408 19.7663 83.8525 19.6859 83.4933 19.5304C83.1334 19.3748 82.8117 19.1474 82.5474 18.863C82.2832 18.5785 82.0834 18.2432 81.9594 17.8785C81.8361 17.5139 81.7914 17.128 81.8297 16.7456ZM86.2303 16.7456C86.2303 15.4858 85.6515 14.7491 84.6354 14.7491C83.6159 14.7491 83.042 15.4858 83.042 16.7456C83.042 18.0156 83.6159 18.7466 84.6354 18.7466C85.6515 18.7465 86.2303 18.0105 86.2303 16.7456Z" fill="white"/>
<path d="M88.6733 18.0104C88.6733 16.9643 89.4704 16.3611 90.8846 16.2754L92.4951 16.1847V15.683C92.4951 15.0692 92.0799 14.7226 91.2779 14.7226C90.6232 14.7226 90.169 14.9577 90.0387 15.3685H88.9029C89.0226 14.3703 89.9834 13.73 91.3324 13.73C92.8231 13.73 93.6635 14.4554 93.6635 15.683V19.654H92.5341V18.8373H92.4413C92.2528 19.1303 91.9878 19.3691 91.6746 19.5294C91.3608 19.6897 91.0086 19.7658 90.6551 19.7498C90.4057 19.7752 90.1534 19.7492 89.9147 19.6734C89.6759 19.5976 89.4563 19.4738 89.2699 19.3099C89.0829 19.146 88.9334 18.9457 88.8306 18.7219C88.7279 18.4981 88.6748 18.2557 88.6733 18.0104ZM92.4951 17.5138V17.0279L91.0433 17.1187C90.2243 17.1722 89.853 17.4445 89.853 17.9568C89.853 18.4799 90.3178 18.7843 90.9555 18.7843C91.1425 18.8028 91.3317 18.7843 91.511 18.73C91.6909 18.6757 91.8574 18.5866 92.0013 18.4681C92.1444 18.3495 92.2627 18.204 92.3477 18.04C92.432 17.8761 92.4823 17.6971 92.4951 17.5138Z" fill="white"/>
<path d="M95.2056 16.7465C95.2056 14.91 96.1713 13.7466 97.6733 13.7466C98.0453 13.7299 98.4138 13.8169 98.7368 13.9974C99.0592 14.178 99.3235 14.4446 99.4964 14.7662H99.5842V11.5742H100.758V19.6549H99.6331V18.7366H99.5403C99.3532 19.0561 99.0805 19.3194 98.7517 19.4982C98.4223 19.6769 98.0496 19.7643 97.6733 19.7507C96.1607 19.7508 95.2056 18.5873 95.2056 16.7465ZM96.4178 16.7465C96.4178 17.9792 97.0123 18.721 98.0063 18.721C98.9954 18.721 99.6062 17.9685 99.6062 16.7515C99.6062 15.5402 98.9891 14.777 98.0063 14.777C97.0187 14.777 96.4178 15.5238 96.4178 16.7465Z" fill="white"/>
<path d="M105.613 16.7455C105.575 16.3636 105.62 15.9782 105.744 15.6142C105.868 15.2501 106.068 14.9153 106.332 14.6314C106.596 14.3475 106.918 14.1206 107.277 13.9654C107.636 13.8102 108.024 13.73 108.417 13.73C108.809 13.73 109.197 13.8102 109.556 13.9654C109.915 14.1206 110.237 14.3475 110.501 14.6314C110.765 14.9153 110.965 15.2501 111.089 15.6142C111.213 15.9782 111.258 16.3636 111.22 16.7455C111.258 17.1278 111.215 17.5138 111.091 17.8784C110.967 18.243 110.767 18.5783 110.502 18.8629C110.239 19.1474 109.917 19.3747 109.557 19.5302C109.198 19.6858 108.81 19.7662 108.417 19.7662C108.023 19.7662 107.635 19.6858 107.276 19.5302C106.917 19.3747 106.594 19.1474 106.33 18.8629C106.066 18.5783 105.866 18.243 105.743 17.8784C105.619 17.5138 105.575 17.1278 105.613 16.7455ZM110.014 16.7455C110.014 15.4857 109.435 14.749 108.419 14.749C107.398 14.749 106.825 15.4857 106.825 16.7455C106.825 18.0154 107.398 18.7465 108.419 18.7465C109.435 18.7465 110.014 18.0103 110.014 16.7455Z" fill="white"/>
<path d="M112.793 13.8425H113.923V14.7657H114.011C114.159 14.4342 114.41 14.1562 114.728 13.9706C115.047 13.785 115.416 13.701 115.785 13.7303C116.075 13.7091 116.365 13.7517 116.635 13.8551C116.905 13.9584 117.148 14.1199 117.346 14.3275C117.543 14.5351 117.691 14.7835 117.776 15.0543C117.863 15.3251 117.886 15.6114 117.843 15.892V19.6543H116.67V16.18C116.67 15.246 116.255 14.7815 115.387 14.7815C115.19 14.7726 114.994 14.8052 114.812 14.8773C114.629 14.9494 114.466 15.0591 114.33 15.199C114.196 15.3389 114.094 15.5056 114.031 15.6878C113.968 15.87 113.946 16.0632 113.967 16.2543V19.6544H112.793V13.8425Z" fill="white"/>
<path d="M124.474 12.397V13.8704H125.763V14.8365H124.474V17.825C124.474 18.4338 124.731 18.7004 125.315 18.7004C125.465 18.6999 125.614 18.6911 125.763 18.6739V19.6294C125.552 19.6662 125.339 19.6858 125.124 19.6879C123.82 19.6879 123.3 19.2392 123.3 18.1187V14.8365H122.356V13.8704H123.3V12.397H124.474Z" fill="white"/>
<path d="M127.366 11.5742H128.528V14.777H128.621C128.777 14.4423 129.035 14.1627 129.359 13.9765C129.684 13.7901 130.059 13.7062 130.434 13.7359C130.722 13.7206 131.01 13.7676 131.277 13.8734C131.544 13.9794 131.783 14.1415 131.979 14.3485C132.175 14.5554 132.321 14.802 132.408 15.0707C132.495 15.3393 132.52 15.6233 132.482 15.9026V19.6549H131.307V16.1856C131.307 15.2572 130.865 14.7871 130.036 14.7871C129.834 14.7709 129.632 14.798 129.442 14.8665C129.252 14.935 129.08 15.0432 128.937 15.1835C128.794 15.3239 128.685 15.493 128.616 15.679C128.548 15.865 128.521 16.0635 128.539 16.2605V19.6549H127.366V11.5742Z" fill="white"/>
<path d="M139.323 18.0849C139.163 18.6161 138.818 19.0755 138.347 19.3829C137.876 19.6903 137.309 19.826 136.747 19.7664C136.355 19.7765 135.966 19.7031 135.606 19.5514C135.246 19.3997 134.924 19.1733 134.663 18.8879C134.401 18.6025 134.207 18.2649 134.093 17.8986C133.978 17.5322 133.947 17.146 134 16.7665C133.948 16.3859 133.98 15.9988 134.094 15.6314C134.208 15.2639 134.402 14.9248 134.662 14.6369C134.922 14.3489 135.242 14.119 135.601 13.9625C135.96 13.8061 136.349 13.7268 136.742 13.7301C138.395 13.7301 139.394 14.8349 139.394 16.66V17.0602H135.195V17.1245C135.177 17.3378 135.204 17.5524 135.276 17.7548C135.347 17.9571 135.461 18.1426 135.61 18.2993C135.76 18.4561 135.94 18.5806 136.142 18.6651C136.343 18.7495 136.56 18.7919 136.779 18.7895C137.059 18.8224 137.344 18.773 137.595 18.6476C137.848 18.5221 138.055 18.3262 138.193 18.0848L139.323 18.0849ZM135.195 16.2119H138.198C138.213 16.0168 138.186 15.8209 138.119 15.6367C138.052 15.4525 137.945 15.2841 137.808 15.1423C137.67 15.0005 137.503 14.8884 137.318 14.8134C137.134 14.7383 136.935 14.7018 136.735 14.7063C136.532 14.7038 136.331 14.741 136.142 14.8159C135.955 14.8906 135.784 15.0014 135.641 15.1418C135.497 15.2821 135.383 15.449 135.307 15.6328C135.23 15.8167 135.193 16.0135 135.195 16.2119Z" fill="white"/>
</g>
</svg>
