<svg width="159" height="49" viewBox="0 0 159 49" fill="none" xmlns="http://www.w3.org/2000/svg">
<mask id="mask0_2016_4291" style="mask-type:luminance" maskUnits="userSpaceOnUse" x="0" y="0" width="159" height="49">
<path d="M159 0H0V49H159V0Z" fill="white"/>
</mask>
<g mask="url(#mask0_2016_4291)">
<path d="M152.583 48.8796H6.40993C3.13564 48.8796 0.562988 46.2103 0.562988 42.813V6.41288C0.562988 3.01553 3.13564 0.346191 6.40993 0.346191H152.583C155.858 0.346191 158.43 3.01553 158.43 6.41288V42.813C158.43 46.089 155.858 48.8796 152.583 48.8796Z" fill="black"/>
<path d="M152.583 1.31686C155.273 1.31686 157.495 3.6222 157.495 6.41288V42.813C157.495 45.6036 155.273 47.909 152.583 47.909H6.40993C3.72034 47.909 1.4985 45.6036 1.4985 42.813V6.41288C1.4985 3.6222 3.72034 1.31686 6.40993 1.31686H152.583ZM152.583 0.346191H6.40993C3.13564 0.346191 0.562988 3.01553 0.562988 6.41288V42.813C0.562988 46.2103 3.13564 48.8796 6.40993 48.8796H152.583C155.858 48.8796 158.43 46.2103 158.43 42.813V6.41288C158.43 3.13686 155.858 0.346191 152.583 0.346191Z" fill="black"/>
<path d="M55.9929 12.7242C55.9929 13.6949 55.759 14.5442 55.1744 15.1509C54.4727 15.8789 53.6541 16.2429 52.6017 16.2429C51.5492 16.2429 50.7307 15.8789 50.029 15.1509C49.3274 14.4229 48.9766 13.5735 48.9766 12.4815C48.9766 11.3896 49.3274 10.5402 50.029 9.81219C50.7307 9.08418 51.5492 8.72021 52.6017 8.72021C53.0695 8.72021 53.5372 8.84149 54.005 9.08418C54.4727 9.32688 54.8236 9.5695 55.0575 9.93354L54.4727 10.5402C54.005 9.93354 53.4203 9.69085 52.6017 9.69085C51.9001 9.69085 51.1984 9.93354 50.7307 10.5402C50.146 11.0255 49.9121 11.7535 49.9121 12.6029C49.9121 13.4522 50.146 14.1802 50.7307 14.6656C51.3154 15.1509 51.9001 15.5149 52.6017 15.5149C53.4203 15.5149 54.005 15.2722 54.5897 14.6656C54.9405 14.3015 55.1744 13.8162 55.1744 13.2096H52.6017V12.3602H55.9929C55.9929 12.3602 55.9929 12.6029 55.9929 12.7242Z" fill="white"/>
<path d="M61.3721 9.68774H58.2148V11.993H61.1383V12.8424H58.2148V15.1478H61.3721V16.1184H57.2793V8.83838H61.3721V9.68774Z" fill="white"/>
<path d="M65.2296 16.1184H64.2942V9.68774H62.3062V8.83838H67.2176V9.68774H65.2296V16.1184Z" fill="white"/>
<path d="M70.6108 16.1184V8.83838H71.5467V16.1184H70.6108Z" fill="white"/>
<path d="M75.5209 16.1184H74.5854V9.68774H72.5972V8.83838H77.392V9.68774H75.4038V16.1184H75.5209Z" fill="white"/>
<path d="M86.6308 15.1509C85.9288 15.8789 85.1103 16.2429 84.0584 16.2429C83.0057 16.2429 82.1873 15.8789 81.4853 15.1509C80.784 14.4229 80.4326 13.5735 80.4326 12.4815C80.4326 11.3896 80.784 10.5402 81.4853 9.81219C82.1873 9.08418 83.0057 8.72021 84.0584 8.72021C85.1103 8.72021 85.9288 9.08418 86.6308 9.81219C87.3321 10.5402 87.6834 11.3896 87.6834 12.4815C87.6834 13.5735 87.3321 14.4229 86.6308 15.1509ZM82.1873 14.5442C82.6551 15.0295 83.3564 15.3935 84.0584 15.3935C84.7597 15.3935 85.461 15.1509 85.9288 14.5442C86.3965 14.0588 86.7479 13.3309 86.7479 12.4815C86.7479 11.6322 86.5137 10.9042 85.9288 10.4189C85.461 9.93354 84.7597 9.5695 84.0584 9.5695C83.3564 9.5695 82.6551 9.81219 82.1873 10.4189C81.7195 10.9042 81.3682 11.6322 81.3682 12.4815C81.3682 13.3309 81.6024 14.0588 82.1873 14.5442Z" fill="white"/>
<path d="M88.9692 16.1184V8.83838H90.0219L93.4127 14.5411V13.0851V8.83838H94.3483V16.1184H93.4127L89.7877 10.1731V11.6291V16.1184H88.9692Z" fill="white"/>
<path d="M80.2516 26.7769C77.4564 26.7769 75.2439 29.0081 75.2439 32.1071C75.2439 35.0821 77.4564 37.4374 80.2516 37.4374C83.0462 37.4374 85.2594 35.2062 85.2594 32.1071C85.2594 28.8841 83.0462 26.7769 80.2516 26.7769ZM80.2516 35.2062C78.7376 35.2062 77.4564 33.8426 77.4564 31.9832C77.4564 30.1238 78.7376 28.7602 80.2516 28.7602C81.7657 28.7602 83.0462 29.9998 83.0462 31.9832C83.0462 33.8426 81.7657 35.2062 80.2516 35.2062ZM69.4206 26.7769C66.6256 26.7769 64.4128 29.0081 64.4128 32.1071C64.4128 35.0821 66.6256 37.4374 69.4206 37.4374C72.2158 37.4374 74.4283 35.2062 74.4283 32.1071C74.4283 28.8841 72.2158 26.7769 69.4206 26.7769ZM69.4206 35.2062C67.9066 35.2062 66.6256 33.8426 66.6256 31.9832C66.6256 30.1238 67.9066 28.7602 69.4206 28.7602C70.9346 28.7602 72.2158 29.9998 72.2158 31.9832C72.2158 33.8426 70.9346 35.2062 69.4206 35.2062ZM56.4935 28.3883V30.6196H61.5013C61.3848 31.8592 60.919 32.8509 60.3367 33.4707C59.6379 34.2144 58.4733 35.0821 56.4935 35.0821C53.3491 35.0821 51.0199 32.479 51.0199 29.1321C51.0199 25.7852 53.4655 23.182 56.4935 23.182C58.124 23.182 59.405 23.9258 60.3367 24.7934L61.8507 23.182C60.5696 21.9424 58.9392 20.9507 56.61 20.9507C52.4174 20.9507 48.8071 24.6695 48.8071 29.1321C48.8071 33.5946 52.4174 37.3134 56.61 37.3134C58.9392 37.3134 60.5696 36.5697 61.9671 34.9582C63.3646 33.4707 63.8305 31.3633 63.8305 29.7519C63.8305 29.256 63.8305 28.7602 63.7141 28.3883H56.4935ZM109.366 30.1238C108.901 28.8841 107.736 26.7769 105.174 26.7769C102.612 26.7769 100.516 28.8841 100.516 32.1071C100.516 35.0821 102.612 37.4374 105.407 37.4374C107.62 37.4374 109.017 35.9499 109.483 35.0821L107.852 33.8426C107.27 34.7103 106.572 35.3301 105.407 35.3301C104.242 35.3301 103.544 34.8343 102.961 33.7186L109.599 30.7435L109.366 30.1238ZM102.612 31.8592C102.612 29.8758 104.126 28.7602 105.174 28.7602C105.989 28.7602 106.805 29.256 107.037 29.8758L102.612 31.8592ZM97.1383 36.9415H99.3508V21.4465H97.1383V36.9415ZM93.6446 27.8925C93.0618 27.2727 92.1305 26.6528 90.9657 26.6528C88.5204 26.6528 86.1907 29.0081 86.1907 31.9832C86.1907 34.9582 88.4039 37.1895 90.9657 37.1895C92.1305 37.1895 93.0618 36.5696 93.5282 35.9499H93.6446V36.6937C93.6446 38.677 92.5962 39.7926 90.9657 39.7926C89.6845 39.7926 88.7532 38.801 88.5204 37.9332L86.6571 38.801C87.2391 40.1645 88.6368 41.9 91.0821 41.9C93.6446 41.9 95.7407 40.2885 95.7407 36.4457V27.0247H93.6446V27.8925ZM91.0821 35.2062C89.5681 35.2062 88.2875 33.8426 88.2875 31.9832C88.2875 30.1238 89.5681 28.7602 91.0821 28.7602C92.5962 28.7602 93.761 30.1238 93.761 31.9832C93.761 33.8426 92.5962 35.2062 91.0821 35.2062ZM119.498 21.4465H114.258V36.9415H116.471V31.1154H119.498C121.944 31.1154 124.273 29.256 124.273 26.281C124.273 23.3059 121.944 21.4465 119.498 21.4465ZM119.615 28.8841H116.471V23.5539H119.615C121.245 23.5539 122.177 25.0414 122.177 26.157C122.061 27.5206 121.129 28.8841 119.615 28.8841ZM133.008 26.6528C131.378 26.6528 129.748 27.3966 129.165 29.0081L131.144 29.8758C131.611 29.0081 132.309 28.7602 133.125 28.7602C134.289 28.7602 135.337 29.5039 135.454 30.7435V30.8675C135.105 30.6196 134.173 30.2477 133.241 30.2477C131.144 30.2477 129.048 31.4873 129.048 33.7186C129.048 35.8259 130.795 37.1895 132.658 37.1895C134.173 37.1895 134.872 36.4457 135.454 35.702H135.57V36.9415H137.666V30.9915C137.433 28.2644 135.454 26.6528 133.008 26.6528ZM132.775 35.2062C132.076 35.2062 131.028 34.8343 131.028 33.8426C131.028 32.603 132.309 32.2311 133.358 32.2311C134.289 32.2311 134.755 32.479 135.337 32.7269C135.105 34.2144 133.94 35.2062 132.775 35.2062ZM145.004 27.0247L142.558 33.7186H142.441L139.879 27.0247H137.55L141.394 36.4457L139.18 41.652H141.394L147.333 27.0247H145.004ZM125.438 36.9415H127.651V21.4465H125.438V36.9415Z" fill="white"/>
<path d="M12.7268 9.44971C12.376 9.81368 12.1421 10.4203 12.1421 11.1483V37.9631C12.1421 38.6911 12.376 39.2978 12.7268 39.6618L12.8437 39.7831L27.3441 24.7377V24.6164V24.4951L12.7268 9.44971Z" fill="url(#paint0_linear_2016_4291)"/>
<path d="M32.1392 29.8368L27.3447 24.8621V24.6194V24.4981L32.1392 19.5234L32.2562 19.6447L37.9862 23.0421C39.6234 24.0128 39.6234 25.5901 37.9862 26.5608L32.1392 29.8368Z" fill="url(#paint1_linear_2016_4291)"/>
<path d="M32.2544 29.7117L27.3429 24.6157L12.7256 39.7824C13.3103 40.389 14.1289 40.389 15.1814 39.9037L32.2544 29.7117Z" fill="url(#paint2_linear_2016_4291)"/>
<path d="M32.2544 19.5194L15.1814 9.44865C14.1289 8.84199 13.3103 8.96333 12.7256 9.57L27.3429 24.6154L32.2544 19.5194Z" fill="url(#paint3_linear_2016_4291)"/>
<path opacity="0.2" d="M32.1375 29.5923L15.1814 39.5417C14.2458 40.1483 13.4272 40.027 12.8426 39.5417L12.7256 39.663L12.8426 39.7844C13.4272 40.2697 14.2458 40.391 15.1814 39.7844L32.1375 29.5923Z" fill="black"/>
<path opacity="0.12" d="M12.7275 39.541C12.3767 39.177 12.2598 38.5703 12.2598 37.8423V37.9636C12.2598 38.6916 12.4937 39.2983 12.8444 39.6623V39.541H12.7275Z" fill="black"/>
<path opacity="0.12" d="M37.9846 26.193L32.1377 29.5904L32.2546 29.7117L37.9846 26.3144C38.8032 25.8291 39.154 25.2224 39.154 24.6157C39.154 25.2224 38.6862 25.7077 37.9846 26.193Z" fill="black"/>
<path opacity="0.25" d="M15.1832 9.57155L37.9863 23.0396C38.688 23.5249 39.1557 24.0103 39.1557 24.6169C39.1557 24.0103 38.8049 23.4035 37.9863 22.9182L15.1832 9.45021C13.5461 8.4795 12.2598 9.32886 12.2598 11.2702V11.3915C12.2598 9.45021 13.5461 8.60085 15.1832 9.57155Z" fill="white"/>
</g>
<defs>
<linearGradient id="paint0_linear_2016_4291" x1="26.0574" y1="10.9175" x2="5.70858" y2="30.5293" gradientUnits="userSpaceOnUse">
<stop stop-color="#00A0FF"/>
<stop offset="0.00657445" stop-color="#00A1FF"/>
<stop offset="0.2601" stop-color="#00BEFF"/>
<stop offset="0.5122" stop-color="#00D2FF"/>
<stop offset="0.7604" stop-color="#00DFFF"/>
<stop offset="1" stop-color="#00E3FF"/>
</linearGradient>
<linearGradient id="paint1_linear_2016_4291" x1="40.1313" y1="24.6211" x2="11.8357" y2="24.6211" gradientUnits="userSpaceOnUse">
<stop stop-color="#FFE000"/>
<stop offset="0.4087" stop-color="#FFBD00"/>
<stop offset="0.7754" stop-color="#FFA500"/>
<stop offset="1" stop-color="#FF9C00"/>
</linearGradient>
<linearGradient id="paint2_linear_2016_4291" x1="29.5964" y1="27.4017" x2="2.00168" y2="53.9969" gradientUnits="userSpaceOnUse">
<stop stop-color="#FF3A44"/>
<stop offset="1" stop-color="#C31162"/>
</linearGradient>
<linearGradient id="paint3_linear_2016_4291" x1="9.09733" y1="0.562419" x2="21.4196" y2="12.4382" gradientUnits="userSpaceOnUse">
<stop stop-color="#32A071"/>
<stop offset="0.0685" stop-color="#2DA771"/>
<stop offset="0.4762" stop-color="#15CF74"/>
<stop offset="0.8009" stop-color="#06E775"/>
<stop offset="1" stop-color="#00F076"/>
</linearGradient>
</defs>
</svg>
