
<?xml version="1.0" encoding="utf-8"?>
<!-- Generator: Adobe Illustrator 27.0.1, SVG Export Plug-In . SVG Version: 6.00 Build 0)  -->
<svg version="1.1" id="Layer_1" xmlns="http://www.w3.org/2000/svg" xmlns:xlink="http://www.w3.org/1999/xlink" x="0px" y="0px"
	 viewBox="0 0 136 36" style="enable-background:new 0 0 136 36;" xml:space="preserve">
<style type="text/css">
	.st0{fill-rule:evenodd;clip-rule:evenodd;}
</style>
<path class="st0" d="M27.2,2.4c-3.6-0.7-7.5-0.2-10.9,1.7l0,0c-0.7,0.4-1.4,0.9-2,1.4C13.6,6,13,6.6,12.5,7.1
	c-0.3,0.3-0.6,0.7-0.8,1H9.3c0.1-0.3,0.3-0.6,0.5-0.9c0.3-0.6,0.7-1.1,1.2-1.6v0c0.6-0.6,1.2-1.2,1.9-1.7c0.6-0.4,1.2-0.9,1.9-1.3
	l0,0l0.5-0.3c3.9-2.2,8.2-2.8,12.3-2c4.1,0.8,7.9,3,10.6,6.5c0.3,0.4,0.6,0.8,0.9,1.2h-2.5l0,0C34.2,5.1,30.8,3.1,27.2,2.4z
	 M10.7,10.4L10.7,10.4c-0.1,0.2-0.1,0.5-0.2,0.7l0,0c-0.1,0.3-0.1,0.5-0.2,0.8c-0.1,0.2-0.2,0.5-0.3,0.7H7.7l0,0
	c0.1-0.3,0.2-0.6,0.3-0.8c0.1-0.2,0.2-0.4,0.2-0.5c0.1-0.2,0.1-0.4,0.2-0.6c0-0.1,0-0.2,0.1-0.2H10.7z M40.3,10.4
	c0.3,0.7,0.6,1.5,0.9,2.2H39c-0.3-0.8-0.6-1.5-1-2.2H40.3z M10.2,13.7c0.1,0.1,0.2,0.2,0.3,0.4c0.6,1,0.1,2.1-0.3,3.1
	c-0.2,0.4-0.4,0.8-0.7,1.1l0,0c-0.3,0.3-0.7,0.7-1,1.1c-0.1,0.1-0.2,0.3-0.3,0.3c0.1,0,0.1,0.1,0.2,0.1l0,0c0.2,0.1,0.5,0.3,0.8,0.5
	c0.1,0.1,0.1,0.1,0.2,0.2H6c-0.1-0.1-0.1-0.3-0.1-0.4l0,0l0,0c0-0.4,0.1-0.8,0.5-1.4c0.3-0.4,0.8-1,1.6-1.8c0.1-0.2,0.3-0.4,0.4-0.6
	c0.1-0.2,0.1-0.4,0.2-0.7l0,0l0,0c0-0.1,0.1-0.2,0.1-0.3c0-0.1,0-0.1,0.1-0.2c0,0-0.1-0.1-0.1-0.1c-0.2-0.2-0.4-0.4-0.6-0.6l0,0
	c-0.1-0.2-0.2-0.4-0.3-0.7H10.2z M41.5,13.7c0.5,2.1,0.7,4.3,0.4,6.5c0,0.1,0,0.2,0,0.3h-2.1c0-0.2,0.1-0.4,0.1-0.6
	c0.2-2.1,0.1-4.2-0.5-6.2l0,0H41.5z M9.6,20.9c0.1,0.1,0.1,0.3,0.1,0.4c0,0.2,0.1,0.5,0,0.7c0,0.2-0.1,0.5-0.2,0.7l0,0
	c0,0.1-0.1,0.1-0.1,0.2c0.1,0.1,0.1,0.1,0.2,0.1l0,0l0,0l0,0c0.2,0.2,0.4,0.4,0.4,0.7c0,0.2,0,0.4-0.1,0.5c0.1,0.1,0.2,0.2,0.3,0.3
	c0.2,0.2,0.4,0.5,0.5,0.8l0,0c0,0.2,0.1,0.4,0.1,0.6c0,0.1,0,0.1,0,0.2H8.6c0,0,0-0.1,0-0.1l0,0c0,0,0-0.1,0-0.1l0,0
	c0,0-0.1-0.1-0.1-0.1l0,0l0,0c-0.4-0.2-0.8-0.5-0.9-1.1l0,0c0-0.2,0-0.4,0-0.5l0,0c0,0-0.1-0.1-0.1-0.1l0,0
	c-0.4-0.4-0.5-0.8-0.4-1.2c0.1-0.3,0.2-0.6,0.3-0.8l0-0.1c0.1-0.2,0.2-0.3,0.2-0.4v0c0-0.1-0.1,0-0.2,0l0,0c-0.1,0-0.2-0.1-0.3-0.2
	c-0.1,0-0.2-0.1-0.2-0.2c-0.2-0.1-0.5-0.3-0.6-0.5H9.6z M41.8,20.9c-0.3,1.9-0.9,3.7-1.8,5.4h-2.4c0.1-0.2,0.2-0.3,0.3-0.5
	c0.9-1.5,1.5-3.2,1.8-4.9H41.8z M10.7,26.9c0,0.1,0,0.1,0,0.2c0,0.1,0,0.3,0.1,0.4l0,0l0,0c0,0.1,0.1,0.1,0.1,0.2h0
	c0.2,0.2,1.1-0.3,2.2-0.8h3.8l0,0c-0.1,0.1-0.2,0.3-0.3,0.4c-1.1,0.9-3.6,2.1-4.7,2.5c-0.1,0-0.3,0.1-0.3,0.1l0,0
	c-0.6,0.1-1.2,0-1.7-0.3l0,0c-0.5-0.3-0.9-0.8-1-1.4c-0.1-0.3-0.2-0.7-0.2-1c0-0.1,0-0.2,0-0.3H10.7z M14.2,26.3
	c0.6-0.4,1.2-0.7,1.4-0.8c0.8-0.3,1.3,0.2,1.3,0.8H14.2z M39.7,26.9c-1.1,2-2.6,3.7-4.5,5.2c-1.9,1.5-4,2.5-6.2,3.2
	c-2.3,0.6-4.6,0.8-6.9,0.6l0,0c-1.1-0.2-2.3-0.5-3.3-0.8c-1.3-0.4-2.4-1-2.9-1.3l-0.1,0.1c-0.2-0.2-0.3-0.4-0.3-0.5v0
	c0-0.2,0-0.4,0.1-0.6c0.1-0.2,0.2-0.3,0.4-0.3c0.2-0.1,0.4-0.1,0.7-0.1l0,0c0.2,0,0.6,0.2,1.1,0.3c1.1,0.4,3.1,1.1,4.5,1.3
	c2,0.2,4.1,0.1,6.1-0.5c1.9-0.6,3.8-1.5,5.4-2.8c1.3-1.1,2.5-2.3,3.4-3.6H39.7z M31.1,16.3L20.7,11c-0.6-0.3-1.4-0.3-1.9,0.1
	c-0.5,0.3-0.9,0.9-0.9,1.5h6l2.2,1.1h-8.2v6.8h12l1.3-0.6l0,0c0.7-0.3,1.1-1,1.1-1.8C32.2,17.3,31.8,16.6,31.1,16.3z M17.8,20.9v2.4
	c0,0.7,0.4,1.3,0.9,1.7c0.3,0.2,0.7,0.3,1,0.3c0.3,0,0.6-0.1,0.9-0.2l8.3-4.2H17.8z M56.3,13.7c-1.2,0.4-2.2,1-2.9,1.9l0.3-1.9H50
	l-1.2,6.8h4c0.5-2.2,2.2-3.5,4.2-3.5c2.1,0,3.3,1.4,3.1,3.5h4c0.5-3.3-0.9-5.9-3.5-6.8H56.3z M48.7,20.9l-1,5.4h13.4
	c1.4-1.3,2.5-3.2,2.9-5.4h-4c-0.4,2.3-2.2,3.9-4.4,3.9c-2.2,0-3.3-1.6-2.9-3.9l0,0H48.7z M47.7,26.9l-0.5,2.6h4.1l0.5-2.6H47.7z
	 M46.8,31.9l-0.2,1h4.1l0.2-1H46.8z M52.1,26.9c0.8,1,2.1,1.5,3.8,1.5c1.7,0,3.2-0.6,4.5-1.5H52.1z M76.2,13.7
	c-1.8,0-3.2,0.6-4.3,1.9l0.3-1.9h-3.7l-1.2,6.8h4.1c0.5-2,2-3,4.1-3h1.2l0.7-3.8H76.2z M67.2,20.9l-1,5.4h4.1l-0.1,0.6h-4.1
	l-0.2,1.2h4.1l1.3-7c0-0.1,0-0.1,0-0.2H67.2z M82.6,11.4c0.9,0,1.6-0.4,2.2-1h-4C81.1,11,81.7,11.4,82.6,11.4z M85.4,8.1
	c-0.2-0.9-0.9-1.4-1.9-1.4c-1,0-2,0.6-2.5,1.4H85.4z M77.5,28.1h4.1l1.3-7.3l0,0.1h-4.1l-1,5.4h4.1l-0.1,0.6h-4.1L77.5,28.1z
	 M83,20.5l1.2-6.8h-4.1l-1.2,6.8H83z M97.4,13.7L94,20.5h4l3.7-6.8H97.4z M93.8,20.9l-1.3,2.7L92,20.9h-4l1,5.4h5.7l-0.3,0.6h-5.3
	l0.2,1.2h4.4l4.1-7.5l-0.2,0.3H93.8z M92,20.5l-1-6.8h-4.3l1.3,6.8H92z M108.1,13.7c-3.1,0.9-5.7,3.5-6.5,6.8h14.9
	c0.4-3.4-1.1-5.9-3.8-6.8H108.1z M101.6,20.9L101.6,20.9c-0.4,2.2,0.1,4.1,1.2,5.4h11c0.8-0.7,1.5-1.7,2-2.7h-3.9
	c-0.7,1.1-1.7,1.6-3.2,1.6c-2,0-3.2-1.2-3.2-3.2h10.9c0.1-0.4,0.2-0.7,0.2-1.1H101.6z M103.4,26.9c1.1,1,2.7,1.5,4.6,1.5
	c1.9,0,3.6-0.5,5-1.5H103.4z M109.9,16.6c1.8,0,2.9,1.1,2.9,2.7H106C106.8,17.6,108.3,16.6,109.9,16.6z M125.5,13.7
	c-3.1,0.9-5.7,3.5-6.5,6.8h14.9c0.4-3.4-1.1-5.9-3.8-6.8H125.5z M118.9,20.9L118.9,20.9c-0.4,2.2,0.1,4.1,1.2,5.4h11
	c0.8-0.7,1.5-1.7,2-2.7h-3.9c-0.7,1.1-1.7,1.6-3.2,1.6c-2,0-3.2-1.2-3.2-3.2h10.9c0.1-0.4,0.2-0.7,0.2-1.1H118.9z M120.7,26.9
	c1.1,1,2.7,1.5,4.6,1.5c1.9,0,3.6-0.5,5-1.5H120.7z M127.3,16.6c1.8,0,2.9,1.1,2.9,2.7h-6.8C124.2,17.6,125.7,16.6,127.3,16.6z
	 M15.7,26.3c0,0.1,0,0.3-0.1,0.4c0,0.1,0,0.1,0,0.2h-2.1c0-0.2,0-0.4,0.1-0.6H15.7z M17.9,26.9c0.4-0.2,0.8-0.4,1.2-0.6h2.7
	c0,0.2,0,0.4-0.1,0.6H17.9z M44.9,26.3c-0.1,0.2-0.2,0.4-0.3,0.5l-0.1,0.1h-2.4c0.1-0.2,0.3-0.4,0.4-0.6H44.9z M52.7,26.3h13.4
	c-0.2,0.2-0.5,0.4-0.8,0.6H57c-0.1-0.1-0.2-0.3-0.3-0.4l-0.1,0.4h-4.1L52.7,26.3z M71.1,26.3h4.1L75,26.9H71L71.1,26.3z M82.7,26.3
	h4.1l-0.1,0.6h-4.1L82.7,26.3z M94,26.3h5.7l-0.3,0.6h-5.3L94,26.3z M107.6,26.3h11c-0.3,0.2-0.5,0.4-0.8,0.6h-9.6
	C108,26.7,107.8,26.5,107.6,26.3z M125,26.3h11c-0.3,0.2-0.5,0.4-0.8,0.6h-9.6C125.4,26.7,125.2,26.5,125,26.3z M6.9,20.5
	c0.1,0.1,0.2,0.3,0.3,0.4H3.8l0,0c-0.1-0.1-0.2-0.3-0.2-0.4H6.9z M39.4,20.5c0,0.1,0,0.3-0.1,0.4h-2.1c0-0.1,0-0.3,0.1-0.4H39.4z
	 M15.3,20.5h12l-0.8,0.4H15.3V20.5z M46.4,20.5h4c0,0.1-0.1,0.3-0.1,0.4l0,0h-3.9L46.4,20.5z M57.6,20.5h4c0,0.1,0,0.3-0.1,0.4l0,0
	h-4l0,0C57.6,20.8,57.6,20.6,57.6,20.5z M64.8,20.5h4.1c0,0.1-0.1,0.3-0.1,0.4h-4.1L64.8,20.5z M76.5,20.5h4.1l-0.1,0.4h-4.1
	L76.5,20.5z M85.5,20.5h4l0.1,0.4h-4L85.5,20.5z M91.5,20.5h4l-0.2,0.4h-3.9L91.5,20.5z M99.2,20.5h14.9c0,0.1,0,0.3-0.1,0.4H99.1
	C99.1,20.8,99.2,20.6,99.2,20.5z M116.6,20.5h14.9c0,0.1,0,0.3-0.1,0.4h-14.9C116.5,20.8,116.5,20.6,116.6,20.5z M4.8,12.6l0,0.1
	c-0.1,0.1-0.1,0.2-0.2,0.4c0,0.1,0,0.2-0.1,0.2c0,0,0.1,0,0.1,0.1l0,0c0.1,0.1,0.3,0.2,0.4,0.3H2.4c0,0,0-0.1,0-0.1l0-0.1l0-0.1
	c0-0.3,0-0.6,0.1-0.9H4.8z M36,12.6c0.1,0.2,0.1,0.4,0.2,0.5c0.1,0.2,0.1,0.4,0.1,0.5h-2.1c-0.1-0.4-0.2-0.7-0.3-1.1H36z M12.6,12.6
	h6l2.2,1.1h-8.2v-0.9C12.6,12.7,12.6,12.7,12.6,12.6z M124.9,13.7h-4.6c0.8-0.2,1.6-0.3,2.4-0.3C123.5,13.3,124.2,13.5,124.9,13.7z
	 M107.5,13.7h-4.6c0.8-0.2,1.6-0.3,2.4-0.3S106.9,13.5,107.5,13.7z M55.4,13.7h-4.3c0.7-0.2,1.4-0.3,2.2-0.3
	C54,13.3,54.8,13.5,55.4,13.7z M48.4,29.5h4.1L52,31.9h-4.1L48.4,29.5z M10.2,8.1c0,0.1-0.1,0.1-0.1,0.2C9.8,8.8,9.6,9.2,9.4,9.7
	l0,0c-0.1,0.2-0.2,0.5-0.2,0.7H7c0-0.2,0.1-0.4,0.1-0.6C7.2,9.5,7.3,9.3,7.4,9l0,0c0.1-0.3,0.2-0.6,0.4-0.9H10.2z M37.6,8.1
	c0.5,0.7,0.9,1.5,1.3,2.2h-2.3c-0.4-0.8-0.9-1.5-1.5-2.2l0,0H37.6z M79.4,8.1h4.4c0.1,0.3,0.1,0.6,0,0.9c-0.1,0.5-0.3,0.9-0.6,1.3
	h-4C79.1,10,79,9.5,79.1,9C79.2,8.7,79.3,8.4,79.4,8.1z"/>
<path class="st0" d="M24.8,2.4c-3.6-0.7-7.5-0.2-10.9,1.7l0,0c-0.7,0.4-1.4,0.9-2,1.4c-0.7,0.5-1.3,1.1-1.8,1.6
	c-0.3,0.3-0.6,0.7-0.8,1H6.9c0.1-0.3,0.3-0.6,0.5-0.9c0.3-0.6,0.7-1.1,1.2-1.6v0C9.2,5,9.8,4.5,10.4,3.9c0.6-0.4,1.2-0.9,1.9-1.3
	l0,0l0.5-0.3c3.9-2.2,8.2-2.8,12.3-2c4.1,0.8,7.9,3,10.6,6.5c0.3,0.4,0.6,0.8,0.9,1.2h-2.5l0,0C31.8,5.1,28.4,3.1,24.8,2.4z
	 M8.3,10.4L8.3,10.4c-0.1,0.2-0.1,0.5-0.2,0.7l0,0c-0.1,0.3-0.1,0.5-0.2,0.8c-0.1,0.2-0.2,0.5-0.3,0.7H5.3l0,0
	c0.1-0.3,0.2-0.6,0.3-0.8c0.1-0.2,0.2-0.4,0.2-0.5C6,11,6,10.8,6.1,10.6c0-0.1,0-0.2,0.1-0.2H8.3z M38,10.4c0.3,0.7,0.6,1.5,0.9,2.2
	h-2.2c-0.3-0.8-0.6-1.5-1-2.2H38z M7.9,13.7C8,13.8,8.1,13.9,8.1,14c0.6,1,0.1,2.1-0.3,3.1c-0.2,0.4-0.4,0.8-0.7,1.1l0,0
	c-0.3,0.3-0.7,0.7-1,1.1c-0.1,0.1-0.2,0.3-0.3,0.3c0.1,0,0.1,0.1,0.2,0.1l0,0c0.2,0.1,0.5,0.3,0.8,0.5c0.1,0.1,0.1,0.1,0.2,0.2H3.6
	c-0.1-0.1-0.1-0.3-0.1-0.4l0,0l0,0c0-0.4,0.1-0.8,0.5-1.4c0.3-0.4,0.8-1,1.6-1.8c0.1-0.2,0.3-0.4,0.4-0.6C6,16.1,6,15.9,6.1,15.6
	l0,0l0,0c0-0.1,0.1-0.2,0.1-0.3c0-0.1,0-0.1,0.1-0.2c0,0-0.1-0.1-0.1-0.1c-0.2-0.2-0.4-0.4-0.6-0.6l0,0c-0.1-0.2-0.2-0.4-0.3-0.7
	H7.9z M39.2,13.7c0.5,2.1,0.7,4.3,0.4,6.5c0,0.1,0,0.2,0,0.3h-2.1c0-0.2,0.1-0.4,0.1-0.6c0.2-2.1,0.1-4.2-0.5-6.2l0,0H39.2z
	 M7.2,20.9c0.1,0.1,0.1,0.3,0.1,0.4c0,0.2,0.1,0.5,0,0.7c0,0.2-0.1,0.5-0.2,0.7l0,0c0,0.1-0.1,0.1-0.1,0.2c0.1,0.1,0.1,0.1,0.2,0.1
	l0,0l0,0l0,0c0.2,0.2,0.4,0.4,0.4,0.7c0,0.2,0,0.4-0.1,0.5c0.1,0.1,0.2,0.2,0.3,0.3c0.2,0.2,0.4,0.5,0.5,0.8l0,0
	c0,0.2,0.1,0.4,0.1,0.6c0,0.1,0,0.1,0,0.2H6.3c0,0,0-0.1,0-0.1l0,0c0,0,0-0.1,0-0.1l0,0c0,0-0.1-0.1-0.1-0.1l0,0l0,0
	c-0.4-0.2-0.8-0.5-0.9-1.1l0,0c0-0.2,0-0.4,0-0.5l0,0c0,0-0.1-0.1-0.1-0.1l0,0c-0.4-0.4-0.5-0.8-0.4-1.2c0.1-0.3,0.2-0.6,0.3-0.8
	l0-0.1c0.1-0.2,0.2-0.3,0.2-0.4v0c0-0.1-0.1,0-0.2,0l0,0c-0.1,0-0.2-0.1-0.3-0.2c-0.1,0-0.2-0.1-0.2-0.2c-0.2-0.1-0.5-0.3-0.6-0.5
	H7.2z M39.4,20.9c-0.3,1.9-0.9,3.7-1.8,5.4h-2.4c0.1-0.2,0.2-0.3,0.3-0.5c0.9-1.5,1.5-3.2,1.8-4.9H39.4z M8.3,26.9
	c0,0.1,0,0.1,0,0.2c0,0.1,0,0.3,0.1,0.4l0,0l0,0c0,0.1,0.1,0.1,0.1,0.2h0c0.2,0.2,1.1-0.3,2.2-0.8h3.8l0,0c-0.1,0.1-0.2,0.3-0.3,0.4
	c-1.1,0.9-3.6,2.1-4.7,2.5c-0.2,0-0.3,0.1-0.3,0.1l0,0c-0.6,0.1-1.2,0-1.7-0.3l0,0c-0.5-0.3-0.9-0.8-1-1.4c-0.1-0.3-0.2-0.7-0.2-1
	c0-0.1,0-0.2,0-0.3H8.3z M11.8,26.3c0.6-0.4,1.2-0.7,1.4-0.8c0.8-0.3,1.3,0.2,1.3,0.8H11.8z M37.3,26.9c-1.1,2-2.6,3.7-4.5,5.2
	c-1.9,1.5-4,2.5-6.2,3.2c-2.3,0.6-4.6,0.8-6.9,0.6l0,0c-1.1-0.2-2.3-0.5-3.3-0.8c-1.3-0.4-2.4-1-2.9-1.3l-0.1,0.1
	c-0.2-0.2-0.3-0.4-0.3-0.5v0c0-0.2,0-0.4,0.1-0.6c0.1-0.2,0.2-0.3,0.4-0.3c0.2-0.1,0.4-0.1,0.7-0.1l0,0c0.2,0,0.6,0.2,1.1,0.3
	c1.1,0.4,3.1,1.1,4.5,1.3c2,0.2,4.1,0.1,6.1-0.5c1.9-0.6,3.8-1.5,5.4-2.8c1.3-1.1,2.5-2.3,3.4-3.6H37.3z M28.8,16.3L18.3,11
	c-0.6-0.3-1.4-0.3-1.9,0.1c-0.5,0.3-0.9,0.9-0.9,1.5h6l2.2,1.1h-8.2v6.8h12l1.3-0.6c0.7-0.3,1.1-1,1.1-1.8
	C29.9,17.3,29.4,16.6,28.8,16.3z M15.4,20.9v2.4c0,0.7,0.4,1.3,0.9,1.7c0.3,0.2,0.7,0.3,1,0.3c0.3,0,0.6-0.1,0.9-0.2l8.3-4.2H15.4z
	 M54,13.7c-1.2,0.4-2.2,1-2.9,1.9l0.3-1.9h-3.7l-1.2,6.8h4c0.5-2.2,2.2-3.5,4.2-3.5c2.1,0,3.3,1.4,3.1,3.5h4
	c0.5-3.3-0.9-5.9-3.5-6.8H54z M46.4,20.9l-1,5.4h13.4c1.4-1.3,2.5-3.2,2.9-5.4h-4c-0.4,2.3-2.2,3.9-4.4,3.9c-2.2,0-3.3-1.6-2.9-3.9
	l0,0H46.4z M45.3,26.9l-0.5,2.6h4.1l0.5-2.6H45.3z M44.4,31.9l-0.2,1h4.1l0.2-1H44.4z M49.7,26.9c0.8,1,2.1,1.5,3.8,1.5
	c1.7,0,3.2-0.6,4.5-1.5H49.7z M73.8,13.7c-1.8,0-3.2,0.6-4.3,1.9l0.3-1.9h-3.7l-1.2,6.8H69c0.5-2,2-3,4.1-3h1.2l0.7-3.8H73.8z
	 M64.8,20.9l-1,5.4h4.1l-0.1,0.6h-4.1l-0.2,1.2h4.1l1.3-7c0-0.1,0-0.1,0-0.2H64.8z M80.2,11.4c0.9,0,1.6-0.4,2.2-1h-4
	C78.7,11,79.4,11.4,80.2,11.4z M83,8.1c-0.2-0.9-0.9-1.4-1.9-1.4c-1,0-2,0.6-2.5,1.4H83z M75.2,28.1h4.1l1.3-7.3l0,0.1h-4.1l-1,5.4
	h4.1l-0.1,0.6h-4.1L75.2,28.1z M80.6,20.5l1.2-6.8h-4.1l-1.2,6.8H80.6z M95,13.7l-3.4,6.8h4l3.7-6.8H95z M91.4,20.9l-1.3,2.7
	l-0.4-2.7h-4l1,5.4h5.7l-0.3,0.6h-5.3l0.2,1.2h4.4l4.1-7.5l-0.2,0.3H91.4z M89.6,20.5l-1-6.8h-4.3l1.3,6.8H89.6z M105.8,13.7
	c-3.1,0.9-5.7,3.5-6.5,6.8h14.9c0.4-3.4-1.1-5.9-3.8-6.8H105.8z M99.2,20.9L99.2,20.9c-0.4,2.2,0.1,4.1,1.2,5.4h11
	c0.8-0.7,1.5-1.7,2-2.7h-3.9c-0.7,1.1-1.7,1.6-3.2,1.6c-2,0-3.2-1.2-3.2-3.2h10.9c0.1-0.4,0.2-0.7,0.2-1.1H99.2z M101,26.9
	c1.1,1,2.7,1.5,4.6,1.5c1.9,0,3.6-0.5,5-1.5H101z M107.6,16.6c1.8,0,2.9,1.1,2.9,2.7h-6.8C104.4,17.6,105.9,16.6,107.6,16.6z
	 M123.1,13.7c-3.1,0.9-5.7,3.5-6.5,6.8h14.9c0.4-3.4-1.1-5.9-3.8-6.8H123.1z M116.6,20.9L116.6,20.9c-0.4,2.2,0.1,4.1,1.2,5.4h11
	c0.8-0.7,1.5-1.7,2-2.7h-3.9c-0.7,1.1-1.7,1.6-3.2,1.6c-2,0-3.2-1.2-3.2-3.2h10.9c0.1-0.4,0.2-0.7,0.2-1.1H116.6z M118.4,26.9
	c1.1,1,2.7,1.5,4.6,1.5c1.9,0,3.6-0.5,5-1.5H118.4z M124.9,16.6c1.8,0,2.9,1.1,2.9,2.7H121C121.8,17.6,123.3,16.6,124.9,16.6z
	 M13.3,26.3c0,0.1,0,0.3-0.1,0.4c0,0.1,0,0.1,0,0.2h-2.1c0-0.2,0-0.4,0.1-0.6H13.3z M15.6,26.9c0.4-0.2,0.8-0.4,1.2-0.6h2.7
	c0,0.2,0,0.4-0.1,0.6H15.6z M42.6,26.3c-0.1,0.2-0.2,0.4-0.3,0.5l-0.1,0.1h-2.4c0.1-0.2,0.3-0.4,0.4-0.6H42.6z M50.3,26.3h13.4
	c-0.2,0.2-0.5,0.4-0.8,0.6h-8.3c-0.1-0.1-0.2-0.3-0.3-0.4l-0.1,0.4h-4.1L50.3,26.3z M68.7,26.3h4.1l-0.1,0.6h-4.1L68.7,26.3z
	 M80.4,26.3h4.1l-0.1,0.6h-4.1L80.4,26.3z M91.6,26.3h5.7L97,26.9h-5.3L91.6,26.3z M105.3,26.3h11c-0.3,0.2-0.5,0.4-0.8,0.6h-9.6
	C105.7,26.7,105.4,26.5,105.3,26.3z M122.6,26.3h11c-0.3,0.2-0.5,0.4-0.8,0.6h-9.6C123,26.7,122.8,26.5,122.6,26.3z M4.5,20.5
	c0.1,0.1,0.2,0.3,0.3,0.4H1.4l0,0c-0.1-0.1-0.2-0.3-0.2-0.4H4.5z M37.1,20.5c0,0.1,0,0.3-0.1,0.4h-2.1c0-0.1,0-0.3,0.1-0.4H37.1z
	 M13,20.5h12l-0.8,0.4H13V20.5z M44,20.5h4c0,0.1-0.1,0.3-0.1,0.4l0,0h-3.9L44,20.5z M55.3,20.5h4c0,0.1,0,0.3-0.1,0.4l0,0h-4l0,0
	C55.2,20.8,55.2,20.6,55.3,20.5z M62.4,20.5h4.1c0,0.1-0.1,0.3-0.1,0.4h-4.1L62.4,20.5z M74.1,20.5h4.1l-0.1,0.4H74L74.1,20.5z
	 M83.2,20.5h4l0.1,0.4h-4L83.2,20.5z M89.2,20.5h4l-0.2,0.4H89L89.2,20.5z M96.8,20.5h14.9c0,0.1,0,0.3-0.1,0.4H96.7
	C96.8,20.8,96.8,20.6,96.8,20.5z M114.2,20.5h14.9c0,0.1,0,0.3-0.1,0.4h-14.9C114.2,20.8,114.2,20.6,114.2,20.5z M2.4,12.6L2.4,12.6
	l0,0.1c-0.1,0.1-0.1,0.2-0.2,0.4c0,0.1,0,0.2-0.1,0.2c0,0,0.1,0,0.1,0.1l0,0c0.1,0.1,0.3,0.2,0.4,0.3H0c0,0,0-0.1,0-0.1l0-0.1l0-0.1
	c0-0.3,0-0.6,0.1-0.9H2.4z M33.6,12.6c0.1,0.2,0.1,0.4,0.2,0.5c0.1,0.2,0.1,0.4,0.1,0.5h-2.1c-0.1-0.4-0.2-0.7-0.3-1.1H33.6z
	 M10.2,12.6h6l2.2,1.1h-8.2v-0.9C10.2,12.7,10.2,12.7,10.2,12.6z M122.6,13.7h-4.6c0.8-0.2,1.6-0.3,2.4-0.3
	C121.1,13.3,121.9,13.5,122.6,13.7z M105.2,13.7h-4.6c0.8-0.2,1.6-0.3,2.4-0.3S104.5,13.5,105.2,13.7z M53,13.7h-4.3
	c0.7-0.2,1.4-0.3,2.2-0.3C51.7,13.3,52.4,13.5,53,13.7z M46,29.5h4.1l-0.4,2.4h-4.1L46,29.5z M7.8,8.1c0,0.1-0.1,0.1-0.1,0.2
	C7.4,8.8,7.2,9.2,7,9.7l0,0c-0.1,0.2-0.2,0.5-0.2,0.7H4.6c0-0.2,0.1-0.4,0.1-0.6C4.8,9.5,4.9,9.3,5,9l0,0c0.1-0.3,0.2-0.6,0.4-0.9
	H7.8z M35.2,8.1c0.5,0.7,0.9,1.5,1.3,2.2h-2.3c-0.4-0.8-0.9-1.5-1.5-2.2l0,0H35.2z M77.1,8.1h4.4c0.1,0.3,0.1,0.6,0,0.9
	c-0.1,0.5-0.3,0.9-0.6,1.3h-4C76.7,10,76.6,9.5,76.7,9C76.8,8.7,76.9,8.4,77.1,8.1z"/>
<path class="st0" d="M26,2.4c-3.6-0.7-7.5-0.2-10.9,1.7l0,0c-0.7,0.4-1.4,0.9-2,1.4c-0.7,0.5-1.3,1.1-1.8,1.6
	c-0.3,0.3-0.6,0.7-0.8,1H8.1c0.1-0.3,0.3-0.6,0.5-0.9c0.3-0.6,0.7-1.1,1.2-1.6v0c0.6-0.6,1.2-1.2,1.9-1.7c0.6-0.4,1.2-0.9,1.9-1.3
	l0,0l0.5-0.3c3.9-2.2,8.2-2.8,12.3-2c4.1,0.8,7.9,3,10.6,6.5c0.3,0.4,0.6,0.8,0.9,1.2h-2.5l0,0C33,5.1,29.6,3.1,26,2.4z M9.5,10.4
	L9.5,10.4c-0.1,0.2-0.1,0.5-0.2,0.7l0,0c-0.1,0.3-0.1,0.5-0.2,0.8c-0.1,0.2-0.2,0.5-0.3,0.7H6.5l0,0c0.1-0.3,0.2-0.6,0.3-0.8
	C7,11.6,7,11.4,7.1,11.2c0.1-0.2,0.1-0.4,0.2-0.6c0-0.1,0-0.2,0.1-0.2H9.5z M39.2,10.4c0.3,0.7,0.6,1.5,0.9,2.2h-2.2
	c-0.3-0.8-0.6-1.5-1-2.2H39.2z M9.1,13.7c0.1,0.1,0.2,0.2,0.3,0.4c0.6,1,0.1,2.1-0.3,3.1c-0.2,0.4-0.4,0.8-0.7,1.1l0,0
	c-0.3,0.3-0.7,0.7-1,1.1c-0.1,0.1-0.2,0.3-0.3,0.3c0.1,0,0.1,0.1,0.2,0.1l0,0c0.2,0.1,0.5,0.3,0.8,0.5c0.1,0.1,0.1,0.1,0.2,0.2H4.8
	c-0.1-0.1-0.1-0.3-0.1-0.4l0,0l0,0c0-0.4,0.1-0.8,0.5-1.4c0.3-0.4,0.8-1,1.6-1.8c0.1-0.2,0.3-0.4,0.4-0.6c0.1-0.2,0.1-0.4,0.2-0.7
	l0,0l0,0c0-0.1,0.1-0.2,0.1-0.3c0-0.1,0-0.1,0.1-0.2c0,0-0.1-0.1-0.1-0.1c-0.2-0.2-0.4-0.4-0.6-0.6l0,0c-0.1-0.2-0.2-0.4-0.3-0.7
	H9.1z M40.3,13.7c0.5,2.1,0.7,4.3,0.4,6.5c0,0.1,0,0.2,0,0.3h-2.1c0-0.2,0.1-0.4,0.1-0.6c0.2-2.1,0.1-4.2-0.5-6.2l0,0H40.3z
	 M8.4,20.9c0.1,0.1,0.1,0.3,0.1,0.4c0,0.2,0.1,0.5,0,0.7c0,0.2-0.1,0.5-0.2,0.7l0,0c0,0.1-0.1,0.1-0.1,0.2c0.1,0.1,0.1,0.1,0.2,0.1
	l0,0l0,0l0,0c0.2,0.2,0.4,0.4,0.4,0.7c0,0.2,0,0.4-0.1,0.5c0.1,0.1,0.2,0.2,0.3,0.3c0.2,0.2,0.4,0.5,0.5,0.8l0,0
	c0,0.2,0.1,0.4,0.1,0.6c0,0.1,0,0.1,0,0.2H7.4c0,0,0-0.1,0-0.1l0,0c0,0,0-0.1,0-0.1l0,0c0,0-0.1-0.1-0.1-0.1l0,0l0,0
	c-0.4-0.2-0.8-0.5-0.9-1.1l0,0c0-0.2,0-0.4,0-0.5l0,0c0,0-0.1-0.1-0.1-0.1l0,0C6,23.8,5.9,23.4,6,23c0.1-0.3,0.2-0.6,0.3-0.8l0-0.1
	c0.1-0.2,0.2-0.3,0.2-0.4v0c0-0.1-0.1,0-0.2,0l0,0c-0.1,0-0.2-0.1-0.3-0.2c-0.1,0-0.2-0.1-0.2-0.2c-0.2-0.1-0.5-0.3-0.6-0.5H8.4z
	 M40.6,20.9c-0.3,1.9-0.9,3.7-1.8,5.4h-2.4c0.1-0.2,0.2-0.3,0.3-0.5c0.9-1.5,1.5-3.2,1.8-4.9H40.6z M9.5,26.9c0,0.1,0,0.1,0,0.2
	c0,0.1,0,0.3,0.1,0.4l0,0l0,0c0,0.1,0.1,0.1,0.1,0.2h0c0.2,0.2,1.1-0.3,2.2-0.8h3.8l0,0c-0.1,0.1-0.2,0.3-0.3,0.4
	c-1.1,0.9-3.6,2.1-4.7,2.5c-0.2,0-0.3,0.1-0.3,0.1l0,0c-0.6,0.1-1.2,0-1.7-0.3l0,0c-0.5-0.3-0.9-0.8-1-1.4c-0.1-0.3-0.2-0.7-0.2-1
	c0-0.1,0-0.2,0-0.3H9.5z M13,26.3c0.6-0.4,1.2-0.7,1.4-0.8c0.8-0.3,1.3,0.2,1.3,0.8H13z M38.5,26.9c-1.1,2-2.6,3.7-4.5,5.2
	c-1.9,1.5-4,2.5-6.2,3.2c-2.3,0.6-4.6,0.8-6.9,0.6l0,0c-1.1-0.2-2.3-0.5-3.3-0.8c-1.3-0.4-2.4-1-2.9-1.3l-0.1,0.1
	c-0.2-0.2-0.3-0.4-0.3-0.5v0c0-0.2,0-0.4,0.1-0.6c0.1-0.2,0.2-0.3,0.4-0.3c0.2-0.1,0.4-0.1,0.7-0.1l0,0c0.2,0,0.6,0.2,1.1,0.3
	c1.1,0.4,3.1,1.1,4.5,1.3c2,0.2,4.1,0.1,6.1-0.5c1.9-0.6,3.8-1.5,5.4-2.8c1.3-1.1,2.5-2.3,3.4-3.6H38.5z M29.9,16.3L19.5,11
	c-0.6-0.3-1.4-0.3-1.9,0.1c-0.5,0.3-0.9,0.9-0.9,1.5h6l2.2,1.1h-8.2v6.8h12l1.3-0.6c0.7-0.3,1.1-1,1.1-1.8
	C31,17.3,30.6,16.6,29.9,16.3z M16.6,20.9v2.4c0,0.7,0.4,1.3,0.9,1.7c0.3,0.2,0.7,0.3,1,0.3c0.3,0,0.6-0.1,0.9-0.2l8.3-4.2H16.6z
	 M55.1,13.7c-1.2,0.4-2.2,1-2.9,1.9l0.3-1.9h-3.7l-1.2,6.8h4c0.5-2.2,2.2-3.5,4.2-3.5c2.1,0,3.3,1.4,3.1,3.5h4
	c0.5-3.3-0.9-5.9-3.5-6.8H55.1z M47.6,20.9l-1,5.4H60c1.4-1.3,2.5-3.2,2.9-5.4h-4c-0.4,2.3-2.2,3.9-4.4,3.9c-2.2,0-3.3-1.6-2.9-3.9
	l0,0H47.6z M46.5,26.9L46,29.5h4.1l0.5-2.6H46.5z M45.6,31.9l-0.2,1h4.1l0.2-1H45.6z M50.9,26.9c0.8,1,2.1,1.5,3.8,1.5
	c1.7,0,3.2-0.6,4.5-1.5H50.9z M75,13.7c-1.8,0-3.2,0.6-4.3,1.9l0.3-1.9h-3.7L66,20.5h4.1c0.5-2,2-3,4.1-3h1.2l0.7-3.8H75z M66,20.9
	l-1,5.4h4.1L69,26.9h-4.1l-0.2,1.2h4.1l1.3-7c0-0.1,0-0.1,0-0.2H66z M81.4,11.4c0.9,0,1.6-0.4,2.2-1h-4C79.9,11,80.5,11.4,81.4,11.4
	z M84.2,8.1c-0.2-0.9-0.9-1.4-1.9-1.4c-1,0-2,0.6-2.5,1.4H84.2z M76.4,28.1h4.1l1.3-7.3l0,0.1h-4.1l-1,5.4h4.1l-0.1,0.6h-4.1
	L76.4,28.1z M81.8,20.5l1.2-6.8h-4.1l-1.2,6.8H81.8z M96.2,13.7l-3.4,6.8h4l3.7-6.8H96.2z M92.6,20.9l-1.3,2.7l-0.4-2.7h-4l1,5.4
	h5.7l-0.3,0.6H88l0.2,1.2h4.4l4.1-7.5l-0.2,0.3H92.6z M90.8,20.5l-1-6.8h-4.3l1.3,6.8H90.8z M106.9,13.7c-3.1,0.9-5.7,3.5-6.5,6.8
	h14.9c0.4-3.4-1.1-5.9-3.8-6.8H106.9z M100.4,20.9L100.4,20.9c-0.4,2.2,0.1,4.1,1.2,5.4h11c0.8-0.7,1.5-1.7,2-2.7h-3.9
	c-0.7,1.1-1.7,1.6-3.2,1.6c-2,0-3.2-1.2-3.2-3.2h10.9c0.1-0.4,0.2-0.7,0.2-1.1H100.4z M102.2,26.9c1.1,1,2.7,1.5,4.6,1.5
	c1.9,0,3.6-0.5,5-1.5H102.2z M108.7,16.6c1.8,0,2.9,1.1,2.9,2.7h-6.8C105.6,17.6,107.1,16.6,108.7,16.6z M124.3,13.7
	c-3.1,0.9-5.7,3.5-6.5,6.8h14.9c0.4-3.4-1.1-5.9-3.8-6.8H124.3z M117.8,20.9L117.8,20.9c-0.4,2.2,0.1,4.1,1.2,5.4h11
	c0.8-0.7,1.5-1.7,2-2.7H128c-0.7,1.1-1.7,1.6-3.2,1.6c-2,0-3.2-1.2-3.2-3.2h10.9c0.1-0.4,0.2-0.7,0.2-1.1H117.8z M119.6,26.9
	c1.1,1,2.7,1.5,4.6,1.5c1.9,0,3.6-0.5,5-1.5H119.6z M126.1,16.6c1.8,0,2.9,1.1,2.9,2.7h-6.8C123,17.6,124.5,16.6,126.1,16.6z
	 M14.5,26.3c0,0.1,0,0.3-0.1,0.4c0,0.1,0,0.1,0,0.2h-2.1c0-0.2,0-0.4,0.1-0.6H14.5z M16.8,26.9c0.4-0.2,0.8-0.4,1.2-0.6h2.7
	c0,0.2,0,0.4-0.1,0.6H16.8z M43.7,26.3c-0.1,0.2-0.2,0.4-0.3,0.5l-0.1,0.1H41c0.1-0.2,0.3-0.4,0.4-0.6H43.7z M51.5,26.3h13.4
	c-0.2,0.2-0.5,0.4-0.8,0.6h-8.3c-0.1-0.1-0.2-0.3-0.3-0.4l-0.1,0.4h-4.1L51.5,26.3z M69.9,26.3H74l-0.1,0.6h-4.1L69.9,26.3z
	 M81.6,26.3h4.1l-0.1,0.6h-4.1L81.6,26.3z M92.8,26.3h5.7l-0.3,0.6h-5.3L92.8,26.3z M106.4,26.3h11c-0.3,0.2-0.5,0.4-0.8,0.6h-9.6
	C106.8,26.7,106.6,26.5,106.4,26.3z M123.8,26.3h11c-0.3,0.2-0.5,0.4-0.8,0.6h-9.6C124.2,26.7,124,26.5,123.8,26.3z M5.7,20.5
	c0.1,0.1,0.2,0.3,0.3,0.4H2.6l0,0c-0.1-0.1-0.2-0.3-0.2-0.4H5.7z M38.2,20.5c0,0.1,0,0.3-0.1,0.4h-2.1c0-0.1,0-0.3,0.1-0.4H38.2z
	 M14.2,20.5h12l-0.8,0.4H14.2V20.5z M45.2,20.5h4c0,0.1-0.1,0.3-0.1,0.4l0,0h-3.9L45.2,20.5z M56.4,20.5h4c0,0.1,0,0.3-0.1,0.4l0,0
	h-4l0,0C56.4,20.8,56.4,20.6,56.4,20.5z M63.6,20.5h4.1c0,0.1-0.1,0.3-0.1,0.4h-4.1L63.6,20.5z M75.3,20.5h4.1l-0.1,0.4h-4.1
	L75.3,20.5z M84.4,20.5h4l0.1,0.4h-4L84.4,20.5z M90.4,20.5h4l-0.2,0.4h-3.9L90.4,20.5z M98,20.5h14.9c0,0.1,0,0.3-0.1,0.4H97.9
	C98,20.8,98,20.6,98,20.5z M115.4,20.5h14.9c0,0.1,0,0.3-0.1,0.4h-14.9C115.3,20.8,115.4,20.6,115.4,20.5z M3.6,12.6L3.6,12.6l0,0.1
	c-0.1,0.1-0.1,0.2-0.2,0.4c0,0.1,0,0.2-0.1,0.2c0,0,0.1,0,0.1,0.1l0,0c0.1,0.1,0.3,0.2,0.4,0.3H1.2c0,0,0-0.1,0-0.1l0-0.1l0-0.1
	c0-0.3,0-0.6,0.1-0.9H3.6z M34.8,12.6c0.1,0.2,0.1,0.4,0.2,0.5c0.1,0.2,0.1,0.4,0.1,0.5H33c-0.1-0.4-0.2-0.7-0.3-1.1H34.8z
	 M11.4,12.6h6l2.2,1.1h-8.2v-0.9C11.4,12.7,11.4,12.7,11.4,12.6z M123.7,13.7h-4.6c0.8-0.2,1.6-0.3,2.4-0.3
	C122.3,13.3,123.1,13.5,123.7,13.7z M106.4,13.7h-4.6c0.8-0.2,1.6-0.3,2.4-0.3S105.7,13.5,106.4,13.7z M54.2,13.7h-4.3
	c0.7-0.2,1.4-0.3,2.2-0.3C52.9,13.3,53.6,13.5,54.2,13.7z M47.2,29.5h4.1l-0.4,2.4h-4.1L47.2,29.5z M9,8.1c0,0.1-0.1,0.1-0.1,0.2
	C8.6,8.8,8.4,9.2,8.2,9.7l0,0C8.1,9.9,8.1,10.2,8,10.4H5.8c0-0.2,0.1-0.4,0.1-0.6C6,9.5,6.1,9.3,6.2,9l0,0c0.1-0.3,0.2-0.6,0.4-0.9
	H9z M36.4,8.1c0.5,0.7,0.9,1.5,1.3,2.2h-2.3c-0.4-0.8-0.9-1.5-1.5-2.2l0,0H36.4z M78.3,8.1h4.4c0.1,0.3,0.1,0.6,0,0.9
	c-0.1,0.5-0.3,0.9-0.6,1.3h-4C77.9,10,77.8,9.5,77.9,9C78,8.7,78.1,8.4,78.3,8.1z"/>
</svg>
