<svg width="24" height="24" viewBox="0 0 24 24" fill="none" xmlns="http://www.w3.org/2000/svg">
<path d="M19.1616 8.28618C20.0053 9.49562 20.5 10.9665 20.5 12.5529C20.5 14.1393 20.0053 15.6102 19.1616 16.8196M12.6434 4.40953L9.2666 7.7863C9.08212 7.97079 8.98987 8.06303 8.88223 8.12899C8.78679 8.18748 8.68274 8.23058 8.5739 8.25671C8.45114 8.28618 8.32069 8.28618 8.05979 8.28618H6.20669C5.60929 8.28618 5.31059 8.28618 5.08242 8.40244C4.88171 8.50471 4.71853 8.66789 4.61626 8.8686C4.5 9.09677 4.5 9.39547 4.5 9.99287V15.1129C4.5 15.7103 4.5 16.009 4.61626 16.2372C4.71853 16.4379 4.88171 16.6011 5.08242 16.7034C5.31059 16.8196 5.60929 16.8196 6.20669 16.8196H8.05979C8.32069 16.8196 8.45114 16.8196 8.5739 16.8491C8.68274 16.8752 8.78679 16.9183 8.88223 16.9768C8.98987 17.0428 9.08212 17.135 9.2666 17.3195L12.6434 20.6963C13.1003 21.1532 13.3288 21.3817 13.5249 21.3971C13.6951 21.4105 13.8615 21.3416 13.9723 21.2118C14.1001 21.0622 14.1001 20.7391 14.1001 20.0929V5.01293C14.1001 4.36672 14.1001 4.04361 13.9723 3.894C13.8615 3.76418 13.6951 3.69528 13.5249 3.70868C13.3288 3.72412 13.1003 3.95259 12.6434 4.40953Z" stroke="white" stroke-opacity="0.8" stroke-width="2" stroke-linecap="round" stroke-linejoin="round"/>
</svg>
