<svg width="24" height="24" viewBox="0 0 24 24" fill="none" xmlns="http://www.w3.org/2000/svg">
<path d="M3 12C3 16.9706 7.02944 21 12 21C13.1971 21 14.3397 20.7663 15.3845 20.3419C15.5845 20.2607 15.6845 20.2201 15.7653 20.202C15.8443 20.1843 15.9028 20.1778 15.9839 20.1778C16.0667 20.1778 16.1569 20.1928 16.3373 20.2229L19.8952 20.8159C20.2678 20.878 20.4541 20.909 20.5888 20.8512C20.7067 20.8007 20.8007 20.7067 20.8512 20.5888C20.909 20.4541 20.878 20.2678 20.8159 19.8952L20.2229 16.3374C20.1928 16.1569 20.1778 16.0667 20.1778 15.9839C20.1778 15.9028 20.1843 15.8443 20.202 15.7653C20.2201 15.6845 20.2607 15.5845 20.3419 15.3845C20.7663 14.3397 21 13.1971 21 12C21 7.02944 16.9706 3 12 3C7.02944 3 3 7.02944 3 12Z" stroke="white" stroke-opacity="0.8" stroke-width="2" stroke-linecap="round" stroke-linejoin="round"/>
</svg>
