<svg width="24" height="24" viewBox="0 0 24 24" fill="none" xmlns="http://www.w3.org/2000/svg">
<g opacity="0.8" clip-path="url(#clip0_3244_4147)">
<path fill-rule="evenodd" clip-rule="evenodd" d="M9.44996 3.1C7.42032 3.1 5.77496 4.74535 5.77496 6.775C5.77496 8.80465 7.42032 10.45 9.44996 10.45C11.4796 10.45 13.125 8.80465 13.125 6.775C13.125 4.74535 11.4796 3.1 9.44996 3.1ZM3.67496 6.775C3.67496 3.58556 6.26052 1 9.44996 1C12.6394 1 15.225 3.58556 15.225 6.775C15.225 9.96444 12.6394 12.55 9.44996 12.55C6.26052 12.55 3.67496 9.96444 3.67496 6.775ZM18.9 13.6C19.4799 13.6 19.95 14.0701 19.95 14.65V16.75H22.05C22.6299 16.75 23.1 17.2201 23.1 17.8C23.1 18.3799 22.6299 18.85 22.05 18.85H19.95V20.95C19.95 21.5299 19.4799 22 18.9 22C18.3201 22 17.85 21.5299 17.85 20.95V18.85H15.75C15.1701 18.85 14.7 18.3799 14.7 17.8C14.7 17.2201 15.1701 16.75 15.75 16.75H17.85V14.65C17.85 14.0701 18.3201 13.6 18.9 13.6ZM6.64254 14.125C6.70246 14.125 6.76326 14.125 6.82497 14.125H11.55C12.1299 14.125 12.6 14.5951 12.6 15.175C12.6 15.7549 12.1299 16.225 11.55 16.225H6.82497C5.28323 16.225 4.74513 16.2364 4.33557 16.3606C3.32882 16.666 2.541 17.4539 2.2356 18.4606C2.11136 18.8702 2.09996 19.4083 2.09996 20.95C2.09996 21.5299 1.62986 22 1.04997 22C0.470066 22 -3.46316e-05 21.5299 -3.46316e-05 20.95C-3.46316e-05 20.8883 -5.71621e-05 20.8275 -7.93171e-05 20.7676C-0.000556089 19.4789 -0.000881663 18.599 0.22603 17.851C0.735018 16.1731 2.04806 14.86 3.72597 14.3511C4.47399 14.1242 5.35391 14.1245 6.64254 14.125Z" fill="white" fill-opacity="0.8"/>
</g>
<defs>
<clipPath id="clip0_3244_4147">
<rect width="24" height="24" fill="white"/>
</clipPath>
</defs>
</svg>
