<svg width="96" height="96" viewBox="0 0 96 96" fill="none" xmlns="http://www.w3.org/2000/svg">
<g filter="url(#filter0_b_1821_3465)">
<circle cx="48" cy="48" r="40" fill="#161616" fill-opacity="0.3"/>
</g>
<path fill-rule="evenodd" clip-rule="evenodd" d="M52.6377 31.8479C48.9301 31.1003 44.9677 31.6458 41.461 33.6266L41.4605 33.6255C40.7826 34.0282 40.0705 34.5335 39.4025 35.068C38.6991 35.6305 38.0534 36.2188 37.5558 36.7495C37.2558 37.073 36.9847 37.4218 36.7451 37.7893H34.2505C34.4013 37.4674 34.5685 37.1554 34.7503 36.8549C35.0971 36.2831 35.5043 35.7431 35.9677 35.2438V35.2411C36.5965 34.5698 37.1894 33.9958 37.883 33.4453C38.4546 32.9916 39.0938 32.5549 39.8767 32.094L39.8718 32.0847L40.3939 31.7886C44.3563 29.5375 48.8365 28.9129 53.0281 29.7534C57.2219 30.5938 61.1271 32.8993 63.9369 36.5078C64.2619 36.9258 64.5663 37.3532 64.851 37.7893H62.2497L62.2775 37.8239C59.7943 34.6346 56.3437 32.595 52.6377 31.8479ZM35.7221 40.1096L35.7178 40.1261C35.6557 40.3541 35.5985 40.5947 35.5468 40.8463L35.5441 40.8606C35.4788 41.1435 35.3982 41.4209 35.3024 41.6939C35.2169 41.9367 35.1189 42.1767 35.0084 42.4151H32.6488L32.657 42.3838C32.7397 42.0806 32.8578 41.7933 33.0097 41.5296C33.099 41.3418 33.1769 41.1561 33.2422 40.9743C33.3114 40.7804 33.3707 40.5777 33.4192 40.3656C33.4366 40.2805 33.4556 40.1948 33.4747 40.1096H35.7221ZM66.1392 40.1096C66.4892 40.8633 66.7854 41.6334 67.0299 42.4151H64.8031C64.5222 41.629 64.1792 40.8584 63.773 40.1096H66.1392ZM35.2468 43.5357C35.3508 43.6527 35.4423 43.7796 35.5196 43.9137C36.1304 44.9694 35.6492 46.101 35.1864 47.1458C35.0046 47.5567 34.7617 47.9407 34.465 48.284L34.453 48.2983C34.1683 48.6076 33.7611 49.0508 33.4268 49.4486C33.3065 49.5914 33.1976 49.71 33.1148 49.7996C33.1736 49.8347 33.2346 49.8677 33.2988 49.8984L33.3157 49.9078C33.5547 50.0308 33.8378 50.1769 34.0943 50.3934C34.1623 50.4505 34.2271 50.5115 34.2881 50.5768H30.9066C30.8516 50.4489 30.8091 50.3143 30.7819 50.1753L30.7754 50.1451L30.7721 50.1088C30.7318 49.6578 30.8549 49.247 31.2403 48.6883C31.5512 48.2384 32.0575 47.6616 32.8404 46.8102C32.9918 46.6284 33.1143 46.4295 33.2036 46.2208C33.295 46.0076 33.356 45.7786 33.3827 45.5407L33.3849 45.5209L33.3919 45.4858C33.4143 45.3765 33.4453 45.2688 33.4845 45.1639C33.5084 45.098 33.5351 45.0354 33.5629 44.9755C33.5308 44.9447 33.4937 44.9101 33.4535 44.8728C33.2308 44.7008 33.0397 44.4921 32.8872 44.257L32.8862 44.2575C32.7446 44.0389 32.6368 43.7955 32.5682 43.5357H35.2468ZM67.3413 43.5357C67.8786 45.7352 68.0093 48.0011 67.7447 50.217C67.7305 50.3373 67.7153 50.4571 67.6984 50.5768H65.5642C65.5953 50.3747 65.6236 50.1715 65.6481 49.9671C65.9023 47.8325 65.7455 45.6489 65.1624 43.5489L65.1586 43.5357H67.3413ZM34.5832 50.9954C34.6523 51.1317 34.7057 51.2827 34.7367 51.4497C34.7835 51.6991 34.7928 51.9512 34.7634 52.1973C34.7345 52.4423 34.6665 52.6862 34.5608 52.9197L34.5559 52.929C34.5255 52.9933 34.4955 53.0537 34.465 53.1125C34.5478 53.1757 34.6098 53.2224 34.6452 53.2493L34.6529 53.2564L34.6616 53.2635L34.6665 53.2657C34.9 53.4498 35.0399 53.7112 35.077 53.9865C35.1009 54.1677 35.0808 54.355 35.0133 54.5308C35.1194 54.6132 35.2174 54.705 35.3056 54.8038C35.5169 55.0406 35.6775 55.3229 35.7738 55.6338L35.7858 55.6816C35.8354 55.9014 35.8555 56.1266 35.8473 56.3507C35.8446 56.421 35.8397 56.4913 35.8316 56.5616H33.5961C33.6054 56.5215 33.6157 56.482 33.6271 56.443L33.6386 56.4045C33.6516 56.3677 33.6598 56.3282 33.6631 56.2886L33.6636 56.2771C33.6255 56.2535 33.5749 56.2238 33.5123 56.1881L33.5128 56.1865L33.5046 56.1821C33.0805 55.9442 32.6744 55.7168 32.5851 55.0472L32.5802 55.0159C32.5655 54.8351 32.5791 54.6495 32.6194 54.4655L32.6221 54.4545C32.5796 54.4193 32.5383 54.3842 32.4991 54.349L32.4985 54.3501C32.0711 53.9859 31.9938 53.5591 32.0684 53.1427C32.1261 52.8203 32.2737 52.556 32.3913 52.3467L32.4332 52.2715C32.5241 52.1111 32.6085 51.9617 32.5889 51.8595V51.8568C32.56 51.7018 32.4452 51.904 32.3379 51.8727L32.3368 51.8749C32.2328 51.8249 32.131 51.7705 32.0319 51.7128C31.9535 51.6667 31.8724 51.6145 31.788 51.5563C31.5365 51.4173 31.3193 51.2245 31.1483 50.9954H34.5832ZM67.6358 50.9954C67.3238 52.9241 66.7125 54.806 65.8125 56.5616H63.3925C63.4878 56.4034 63.5803 56.2441 63.6696 56.0843C64.5581 54.4896 65.1695 52.7675 65.4929 50.9954H67.6358ZM35.6922 57.2258C35.684 57.2917 35.6813 57.3582 35.684 57.4241C35.6895 57.5587 35.7178 57.6932 35.7684 57.8218L35.7858 57.8652L35.7967 57.9146C35.8125 57.9833 35.8533 58.0399 35.9072 58.075H35.9094C36.0934 58.2678 37.0767 57.796 38.1242 57.2258H42.0142L42.0147 57.2247C41.9505 57.3658 41.8574 57.4922 41.7349 57.59C40.6226 58.4727 38.0273 59.7861 36.8736 60.1937C36.7201 60.2267 36.5921 60.2547 36.5556 60.2635L36.5415 60.2684C35.9154 60.4058 35.2893 60.2822 34.7775 59.9685L34.7781 59.9674C34.2761 59.6587 33.8857 59.1676 33.7132 58.5601C33.5901 58.2277 33.5204 57.8767 33.5041 57.5202C33.4997 57.4219 33.4997 57.3235 33.5035 57.2258H35.6922ZM39.3105 56.5616C39.9469 56.1996 40.4946 55.8865 40.7609 55.7701C41.5824 55.4119 42.0555 55.9508 42.1176 56.5616H39.3105ZM65.4548 57.2258C64.3077 59.2555 62.7598 61.099 60.8282 62.6305C58.8933 64.1636 56.7477 65.2452 54.5171 65.8896C52.2049 66.557 49.8001 66.7536 47.4438 66.4949L47.4106 66.49C46.3266 66.3109 45.0864 65.9687 43.9986 65.6138C42.6697 65.1799 41.5274 64.6185 41.0483 64.2526L40.9754 64.3251C40.8012 64.1466 40.7026 63.9576 40.664 63.7725V63.7698C40.6177 63.5412 40.6585 63.3325 40.7663 63.1518C40.86 62.9952 40.9988 62.8733 41.1665 62.7903C41.369 62.6909 41.6271 62.6475 41.8927 62.6777L41.8922 62.6805C42.1116 62.7079 42.4943 62.8453 43.0214 63.0353C44.2006 63.4599 46.197 64.1785 47.6665 64.3795C49.7538 64.6086 51.8853 64.4333 53.9362 63.8412C55.9109 63.2715 57.8104 62.3135 59.5232 60.9562C60.8935 59.8696 62.045 58.6073 62.9705 57.2258H65.4548ZM56.6725 46.2048L45.9521 40.8007C45.3113 40.4777 44.5654 40.5106 43.9562 40.8908C43.4155 41.2297 43.0682 41.7873 43.0001 42.4151H49.155L51.3779 43.5357H42.9876V50.5768H55.3485L56.6725 49.9094L56.6774 49.9072C57.3716 49.5502 57.8022 48.8416 57.8017 48.0566C57.8017 47.2722 57.371 46.563 56.6725 46.2048ZM42.9876 50.9954V53.4701C42.9876 54.1897 43.3502 54.8445 43.9562 55.223C44.2877 55.4295 44.659 55.5333 45.032 55.5333C45.3456 55.5333 45.6597 55.4603 45.9515 55.313L54.5177 50.9954H42.9876ZM40.8496 56.5616C40.8311 56.716 40.7995 56.8682 40.7543 57.0165C40.7336 57.0851 40.7189 57.1549 40.7102 57.2258H38.5221C38.5309 57.0022 38.5619 56.7797 38.6142 56.5616H40.8496ZM43.1422 57.2258C43.5418 57.0082 43.9507 56.7764 44.3286 56.5616H47.1357C47.158 56.7869 47.1248 57.022 47.0322 57.2258H43.1422ZM70.8306 56.5616C70.7331 56.7512 70.6329 56.9396 70.5289 57.1263L70.4729 57.2258H67.9892C68.1351 57.0071 68.2761 56.7858 68.4111 56.5616H70.8306ZM31.7793 50.5768C31.8937 50.6993 31.9949 50.8378 32.0744 50.9954H28.639L28.6287 50.9817C28.5372 50.8564 28.4594 50.7208 28.3978 50.5768H31.7793ZM65.1897 50.5768C65.1701 50.7164 65.1494 50.8559 65.1265 50.9954H62.9842C63.0092 50.8565 63.0332 50.7164 63.0549 50.5768H65.1897ZM40.4783 50.5768H52.8392L52.0083 50.9954H40.4783V50.5768ZM29.644 42.4151L29.5945 42.52C29.5297 42.6409 29.4753 42.7645 29.4323 42.8892C29.4045 42.9683 29.3811 43.0479 29.3615 43.1276C29.3882 43.1424 29.4328 43.1496 29.4867 43.1842L29.4878 43.1825C29.6337 43.2858 29.766 43.405 29.8825 43.5357H27.2039C27.1957 43.505 27.1881 43.4747 27.1816 43.4434L27.1669 43.3786L27.1674 43.3078C27.169 43.0051 27.2088 42.7052 27.2845 42.4151H29.644ZM61.6655 42.4151C61.7232 42.6008 61.7782 42.7865 61.83 42.9732C61.8822 43.1605 61.9307 43.3479 61.977 43.5357H59.7943C59.6898 43.1594 59.5711 42.7859 59.4388 42.4151H61.6655ZM37.6358 42.4151H43.7912L46.0141 43.5357H37.6233V42.6436C37.6233 42.5667 37.6276 42.4904 37.6358 42.4151ZM35.188 37.7893C35.1412 37.8613 35.0949 37.9344 35.0503 38.008C34.7781 38.4579 34.5516 38.9319 34.3757 39.4235L34.3779 39.4241C34.2935 39.6713 34.2222 39.8998 34.165 40.1096H31.9176C31.9617 39.9152 32.0107 39.7207 32.0641 39.5257C32.1397 39.2516 32.2263 38.972 32.3232 38.6891L32.3259 38.682C32.4343 38.3771 32.5573 38.0794 32.6929 37.7893H35.188ZM63.2934 37.7893C63.7834 38.5397 64.2124 39.3153 64.5815 40.1096H62.2154C61.7875 39.3203 61.2893 38.5556 60.7199 37.8239L60.6926 37.7893H63.2934Z" fill="white"/>
<path fill-rule="evenodd" clip-rule="evenodd" d="M50.2155 31.8479C46.5079 31.1003 42.545 31.6458 39.0383 33.6266L39.0377 33.6255C38.3605 34.0282 37.6478 34.5335 36.9798 35.068C36.2764 35.6305 35.6307 36.2188 35.1336 36.7495C34.8336 37.073 34.5625 37.4218 34.3229 37.7893H31.8278C31.9786 37.4674 32.1463 37.1554 32.3281 36.8549C32.6744 36.2831 33.0816 35.7431 33.5449 35.2438V35.2411C34.1743 34.5698 34.7666 33.9958 35.4608 33.4453C36.0325 32.9916 36.6711 32.5549 37.4545 32.094L37.4491 32.0847L37.9712 31.7886C41.9336 29.5375 46.4143 28.9129 50.6053 29.7534C54.7991 30.5938 58.7049 32.8993 61.5142 36.5078C61.8392 36.9258 62.1441 37.3532 62.4283 37.7893H59.8275L59.8547 37.8239C57.3716 34.6346 53.9215 32.595 50.2155 31.8479ZM33.2999 40.1096L33.295 40.1261C33.233 40.3541 33.1758 40.5947 33.1241 40.8463L33.1214 40.8606C33.056 41.1435 32.9755 41.4209 32.8796 41.6939C32.7947 41.9367 32.6967 42.1767 32.5856 42.4151H30.2261L30.2348 42.3838C30.317 42.0806 30.4351 41.7933 30.587 41.5296C30.6768 41.3418 30.7547 41.1561 30.8195 40.9743C30.8886 40.7804 30.948 40.5777 30.9964 40.3656C31.0139 40.2805 31.0329 40.1948 31.0525 40.1096H33.2999ZM63.7164 40.1096C64.067 40.8633 64.3632 41.6334 64.6077 42.4151H62.3804C62.1 41.629 61.7565 40.8584 61.3503 40.1096H63.7164ZM32.8241 43.5357C32.9281 43.6527 33.0196 43.7796 33.0969 43.9137C33.7077 44.9694 33.2264 46.101 32.7637 47.1458C32.5818 47.5567 32.339 47.9407 32.0423 48.284L32.0303 48.2983C31.7456 48.6076 31.3383 49.0508 31.0041 49.4486C30.8837 49.5914 30.7754 49.71 30.6921 49.7996C30.7509 49.8347 30.8119 49.8677 30.8767 49.8984L30.893 49.9078C31.132 50.0308 31.4156 50.1769 31.6721 50.3934C31.7396 50.4505 31.8044 50.5115 31.8659 50.5768H28.4844C28.4294 50.4489 28.3864 50.3143 28.3592 50.1753L28.3532 50.1451L28.3494 50.1088C28.3091 49.6578 28.4321 49.247 28.8176 48.6883C29.1285 48.2384 29.6348 47.6616 30.4177 46.8102C30.5696 46.6284 30.6915 46.4295 30.7814 46.2208C30.8728 46.0076 30.9333 45.7786 30.96 45.5407L30.9621 45.5209L30.9698 45.4858C30.9921 45.3765 31.0226 45.2688 31.0618 45.1639C31.0863 45.098 31.1124 45.0354 31.1407 44.9755C31.108 44.9447 31.0716 44.9101 31.0313 44.8728C30.8081 44.7008 30.617 44.4921 30.4645 44.257L30.4634 44.2575C30.3219 44.0389 30.2141 43.7955 30.1455 43.5357H32.8241ZM64.9185 43.5357C65.4564 45.7352 65.5866 48.0011 65.3225 50.217C65.3083 50.3373 65.2926 50.4571 65.2762 50.5768H63.1415C63.1731 50.3747 63.2008 50.1715 63.2253 49.9671C63.4796 47.8325 63.3228 45.6489 62.7397 43.5489L62.7364 43.5357H64.9185ZM32.161 50.9954C32.2301 51.1317 32.2835 51.2827 32.314 51.4497C32.3613 51.6991 32.37 51.9512 32.3406 52.1973C32.3118 52.4423 32.2437 52.6862 32.1381 52.9197L32.1332 52.929C32.1033 52.9933 32.0728 53.0537 32.0423 53.1125C32.125 53.1757 32.1871 53.2224 32.223 53.2493L32.2301 53.2564L32.2394 53.2635L32.2437 53.2657C32.4778 53.4498 32.6172 53.7112 32.6542 53.9865C32.6787 54.1677 32.658 54.355 32.5905 54.5308C32.6967 54.6132 32.7947 54.705 32.8834 54.8038C33.0941 55.0406 33.2553 55.3229 33.3511 55.6338L33.3631 55.6816C33.4126 55.9014 33.4333 56.1266 33.4252 56.3507C33.4224 56.421 33.417 56.4913 33.4088 56.5616H31.1739C31.1832 56.5215 31.1935 56.482 31.2044 56.443L31.2164 56.4045C31.2294 56.3677 31.2376 56.3282 31.2403 56.2886L31.2409 56.2771C31.2033 56.2535 31.1521 56.2238 31.0895 56.1881L31.0901 56.1865L31.0825 56.1821C30.6578 55.9442 30.2516 55.7168 30.1629 55.0472L30.158 55.0159C30.1433 54.8351 30.1564 54.6495 30.1972 54.4655L30.1994 54.4545C30.1569 54.4193 30.1155 54.3842 30.0763 54.349L30.0758 54.3501C29.6484 53.9859 29.5711 53.5591 29.6457 53.1427C29.7034 52.8203 29.8509 52.556 29.9685 52.3467L30.0105 52.2715C30.1019 52.1111 30.1858 51.9617 30.1662 51.8595V51.8568C30.1373 51.7018 30.0224 51.904 29.9152 51.8727L29.9141 51.8749C29.8101 51.8249 29.7083 51.7705 29.6092 51.7128C29.5314 51.6667 29.4497 51.6145 29.3653 51.5563C29.1138 51.4173 28.8965 51.2245 28.7256 50.9954H32.161ZM65.2131 50.9954C64.9017 52.9241 64.2897 54.806 63.3898 56.5616H60.9703C61.065 56.4034 61.1581 56.2441 61.2469 56.0843C62.1359 54.4896 62.7468 52.7675 63.0702 50.9954H65.2131ZM33.2694 57.2258C33.2618 57.2917 33.2586 57.3582 33.2613 57.4241C33.2667 57.5587 33.295 57.6932 33.3462 57.8218L33.3636 57.8652L33.3745 57.9146C33.3898 57.9833 33.4306 58.0399 33.4845 58.075H33.4867C33.6712 58.2678 34.6539 57.796 35.7014 57.2258H39.5914L39.592 57.2247C39.5277 57.3658 39.4346 57.4922 39.3121 57.59C38.2004 58.4727 35.6045 59.7861 34.4514 60.1937C34.2973 60.2267 34.1694 60.2547 34.1329 60.2635L34.1188 60.2684C33.4927 60.4058 32.8666 60.2822 32.3548 59.9685L32.3559 59.9674C31.8534 59.6587 31.463 59.1676 31.2904 58.5601C31.1674 58.2277 31.0977 57.8767 31.0819 57.5202C31.0776 57.4219 31.077 57.3235 31.0814 57.2258H33.2694ZM36.8878 56.5616C37.5242 56.1996 38.0719 55.8865 38.3381 55.7701C39.1597 55.4119 39.6333 55.9508 39.6949 56.5616H36.8878ZM63.0321 57.2258C61.8849 59.2555 60.3371 61.099 58.4055 62.6305C56.4705 64.1636 54.3249 65.2452 52.0949 65.8896C49.7822 66.557 47.3774 66.7536 45.0216 66.4949L44.9884 66.49C43.9039 66.3109 42.6637 65.9687 41.5759 65.6138C40.2475 65.1799 39.1052 64.6185 38.6256 64.2526L38.5526 64.3251C38.379 64.1466 38.2799 63.9576 38.2418 63.7725V63.7698C38.195 63.5412 38.2358 63.3325 38.3441 63.1518C38.4378 62.9952 38.5761 62.8733 38.7443 62.7903C38.9468 62.6909 39.2043 62.6475 39.47 62.6777L39.4695 62.6805C39.6894 62.7079 40.0716 62.8453 40.5986 63.0353C41.7779 63.4599 43.7743 64.1785 45.2443 64.3795C47.3311 64.6086 49.4626 64.4333 51.514 63.8412C53.4887 63.2715 55.3882 62.3135 57.101 60.9562C58.4713 59.8696 59.6223 58.6073 60.5484 57.2258H63.0321ZM54.2503 46.2048L43.5293 40.8007C42.8885 40.4777 42.1432 40.5106 41.534 40.8908C40.9933 41.2297 40.6455 41.7873 40.5774 42.4151H46.7328L48.9557 43.5357H40.5649V50.5768H52.9257L54.2547 49.9072C54.9488 49.5502 55.3795 48.8416 55.3795 48.0566C55.3795 47.2722 54.9483 46.563 54.2503 46.2048ZM40.5649 50.9954V53.4701C40.5649 54.1897 40.9275 54.8445 41.534 55.223C41.865 55.4295 42.2363 55.5333 42.6098 55.5333C42.9228 55.5333 43.237 55.4603 43.5288 55.313L52.0949 50.9954H40.5649ZM38.4269 56.5616C38.4089 56.716 38.3773 56.8682 38.3316 57.0165C38.3109 57.0851 38.2962 57.1549 38.2875 57.2258H36.0994C36.1087 57.0022 36.1392 56.7797 36.192 56.5616H38.4269ZM40.72 57.2258C41.1191 57.0082 41.528 56.7764 41.9058 56.5616H44.7129C44.7358 56.7869 44.7026 57.022 44.6095 57.2258H40.72ZM68.4078 56.5616C68.3109 56.7512 68.2102 56.9396 68.1062 57.1263L68.0501 57.2258H65.5664C65.7123 57.0071 65.8533 56.7858 65.9883 56.5616H68.4078ZM29.3566 50.5768C29.4715 50.6993 29.5722 50.8378 29.6517 50.9954H26.2163L26.2059 50.9817C26.1145 50.8564 26.0366 50.7208 25.9751 50.5768H29.3566ZM62.7669 50.5768C62.7479 50.7164 62.7266 50.8559 62.7043 50.9954H60.5614C60.587 50.8565 60.6104 50.7164 60.6322 50.5768H62.7669ZM38.0561 50.5768H50.4164L49.5862 50.9954H38.0561V50.5768ZM27.2213 42.4151L27.1838 42.4959L27.1718 42.52C27.107 42.6409 27.0525 42.7645 27.0095 42.8892C26.9818 42.9683 26.9584 43.0479 26.9388 43.1276C26.966 43.1424 27.0106 43.1496 27.064 43.1842L27.0656 43.1825C27.2115 43.2858 27.3433 43.405 27.4598 43.5357H24.7812C24.773 43.505 24.7659 43.4747 24.7588 43.4434L24.7441 43.3786L24.7447 43.3078C24.7463 43.0051 24.7861 42.7052 24.8623 42.4151H27.2213ZM59.2433 42.4151C59.3011 42.6008 59.356 42.7865 59.4078 42.9732C59.4595 43.1605 59.5085 43.3479 59.5542 43.5357H57.3721C57.267 43.1594 57.1484 42.7859 57.0161 42.4151H59.2433ZM35.2131 42.4151H41.3685L43.5914 43.5357H35.2006V42.6436C35.2006 42.5667 35.2049 42.4904 35.2131 42.4151ZM32.7653 37.7893C32.7185 37.8613 32.6727 37.9344 32.6281 38.008C32.3553 38.4579 32.1289 38.9319 31.953 39.4235L31.9552 39.4241C31.8708 39.6713 31.8 39.8998 31.7423 40.1096H29.4949C29.5395 39.9152 29.5885 39.7207 29.6419 39.5257C29.717 39.2516 29.8036 38.972 29.901 38.6891L29.9032 38.682C30.0121 38.3771 30.1346 38.0794 30.2707 37.7893H32.7653ZM60.8712 37.7893C61.3607 38.5397 61.7897 39.3153 62.1593 40.1096H59.7932C59.3648 39.3203 58.8666 38.5556 58.2977 37.8239L58.2699 37.7893H60.8712Z" fill="white"/>
<path fill-rule="evenodd" clip-rule="evenodd" d="M51.4269 31.8479C47.7193 31.1003 43.7563 31.6458 40.2496 33.6266L40.2491 33.6255C39.5718 34.0282 38.8592 34.5335 38.1911 35.068C37.4877 35.6305 36.842 36.2188 36.345 36.7495C36.045 37.073 35.7733 37.4218 35.5343 37.7893H33.0391C33.19 37.4674 33.3576 37.1554 33.5389 36.8549C33.8857 36.2831 34.293 35.7431 34.7563 35.2438V35.2411C35.3857 34.5698 35.978 33.9958 36.6722 33.4453C37.2433 32.9916 37.8824 32.5549 38.6653 32.094L38.6604 32.0847L39.1826 31.7886C43.1449 29.5375 47.6251 28.9129 51.8167 29.7534C56.0105 30.5938 59.9163 32.8993 62.7256 36.5078C63.0506 36.9258 63.3555 37.3532 63.6397 37.7893H61.0383L61.0661 37.8239C58.5829 34.6346 55.1329 32.595 51.4269 31.8479ZM34.5108 40.1096L34.5064 40.1261C34.4443 40.3541 34.3872 40.5947 34.3354 40.8463L34.3327 40.8606C34.2674 41.1435 34.1868 41.4209 34.091 41.6939C34.0061 41.9367 33.9075 42.1767 33.797 42.4151H31.4374L31.4461 42.3838C31.5283 42.0806 31.6465 41.7933 31.7984 41.5296C31.8877 41.3418 31.9661 41.1561 32.0309 40.9743C32.1 40.7804 32.1593 40.5777 32.2078 40.3656C32.2252 40.2805 32.2443 40.1948 32.2633 40.1096H34.5108ZM64.9278 40.1096C65.2779 40.8633 65.574 41.6334 65.819 42.4151H63.5917C63.3108 41.629 62.9678 40.8584 62.5617 40.1096H64.9278ZM34.0355 43.5357C34.1395 43.6527 34.2309 43.7796 34.3082 43.9137C34.9191 44.9694 34.4378 46.101 33.975 47.1458C33.7932 47.5567 33.5504 47.9407 33.2537 48.284L33.2417 48.2983C32.9569 48.6076 32.5497 49.0508 32.2154 49.4486C32.0951 49.5914 31.9868 49.71 31.9035 49.7996C31.9623 49.8347 32.0232 49.8677 32.088 49.8984L32.1044 49.9078C32.3434 50.0308 32.6265 50.1769 32.8829 50.3934C32.9509 50.4505 33.0157 50.5115 33.0773 50.5768H29.6952C29.6402 50.4489 29.5978 50.3143 29.5706 50.1753L29.564 50.1451L29.5608 50.1088C29.5205 49.6578 29.6435 49.247 30.029 48.6883C30.3398 48.2384 30.8462 47.6616 31.6291 46.8102C31.7804 46.6284 31.9029 46.4295 31.9922 46.2208C32.0837 46.0076 32.1446 45.7786 32.1713 45.5407L32.1735 45.5209L32.1806 45.4858C32.2034 45.3765 32.2339 45.2688 32.2731 45.1639C32.2971 45.098 32.3238 45.0354 32.3521 44.9755C32.3194 44.9447 32.2829 44.9101 32.2426 44.8728C32.0194 44.7008 31.8283 44.4921 31.6759 44.257L31.6748 44.2575C31.5332 44.0389 31.4254 43.7955 31.3568 43.5357H34.0355ZM66.1299 43.5357C66.6678 45.7352 66.7979 48.0011 66.5339 50.217C66.5192 50.3373 66.5039 50.4571 66.4871 50.5768H64.3529C64.3839 50.3747 64.4122 50.1715 64.4367 49.9671C64.691 47.8325 64.5342 45.6489 63.9511 43.5489L63.9473 43.5357H66.1299ZM33.3723 50.9954C33.4409 51.1317 33.4943 51.2827 33.5253 51.4497C33.5727 51.6991 33.5814 51.9512 33.552 52.1973C33.5232 52.4423 33.4551 52.6862 33.3495 52.9197L33.3446 52.929C33.3146 52.9933 33.2841 53.0537 33.2537 53.1125C33.3364 53.1757 33.3985 53.2224 33.4344 53.2493L33.4415 53.2564L33.4502 53.2635L33.4551 53.2657C33.6887 53.4498 33.8286 53.7112 33.8656 53.9865C33.8896 54.1677 33.8694 54.355 33.8019 54.5308C33.9081 54.6132 34.0061 54.705 34.0943 54.8038C34.3055 55.0406 34.4661 55.3229 34.5625 55.6338L34.5745 55.6816C34.624 55.9014 34.6447 56.1266 34.636 56.3507C34.6338 56.421 34.6284 56.4913 34.6202 56.5616H32.3847C32.394 56.5215 32.4049 56.482 32.4158 56.443L32.4272 56.4045C32.4408 56.3677 32.449 56.3282 32.4517 56.2886L32.4522 56.2771C32.4147 56.2535 32.3635 56.2238 32.3009 56.1881L32.3014 56.1865L32.2933 56.1821C31.8692 55.9442 31.463 55.7168 31.3737 55.0472L31.3694 55.0159C31.3541 54.8351 31.3677 54.6495 31.408 54.4655L31.4107 54.4545C31.3683 54.4193 31.3269 54.3842 31.2877 54.349L31.2872 54.3501C30.8598 53.9859 30.7825 53.5591 30.8571 53.1427C30.9148 52.8203 31.0623 52.556 31.1799 52.3467L31.2218 52.2715C31.3133 52.1111 31.3971 51.9617 31.3775 51.8595V51.8568C31.3487 51.7018 31.2338 51.904 31.1265 51.8727L31.1255 51.8749C31.0215 51.8249 30.9197 51.7705 30.8206 51.7128C30.7427 51.6667 30.6611 51.6145 30.5767 51.5563C30.3251 51.4173 30.1079 51.2245 29.937 50.9954H33.3723ZM66.4244 50.9954C66.1125 52.9241 65.5011 54.806 64.6011 56.5616H62.1817C62.2764 56.4034 62.3689 56.2441 62.4582 56.0843C63.3473 54.4896 63.9582 52.7675 64.2816 50.9954H66.4244ZM34.4808 57.2258C34.4726 57.2917 34.4699 57.3582 34.4726 57.4241C34.4781 57.5587 34.5064 57.6932 34.5576 57.8218L34.575 57.8652L34.5853 57.9146C34.6011 57.9833 34.642 58.0399 34.6959 58.075H34.698C34.8821 58.2678 35.8653 57.796 36.9128 57.2258H40.8028L40.8033 57.2247C40.7391 57.3658 40.646 57.4922 40.5235 57.59C39.4118 58.4727 36.8159 59.7861 35.6628 60.1937C35.5087 60.2267 35.3808 60.2547 35.3443 60.2635L35.3301 60.2684C34.704 60.4058 34.0779 60.2822 33.5662 59.9685L33.5672 59.9674C33.0647 59.6587 32.6744 59.1676 32.5018 58.5601C32.3787 58.2277 32.3091 57.8767 32.2933 57.5202C32.2889 57.4219 32.2884 57.3235 32.2927 57.2258H34.4808ZM38.0991 56.5616C38.7356 56.1996 39.2833 55.8865 39.5495 55.7701C40.3711 55.4119 40.8447 55.9508 40.9062 56.5616H38.0991ZM64.2434 57.2258C63.0963 59.2555 61.5485 61.099 59.6168 62.6305C57.6819 64.1636 55.5363 65.2452 53.3057 65.8896C50.9935 66.557 48.5888 66.7536 46.2324 66.4949L46.1998 66.49C45.1153 66.3109 43.875 65.9687 42.7873 65.6138C41.4583 65.1799 40.3161 64.6185 39.837 64.2526L39.764 64.3251C39.5903 64.1466 39.4912 63.9576 39.4531 63.7725V63.7698C39.4063 63.5412 39.4471 63.3325 39.5555 63.1518C39.6491 62.9952 39.7874 62.8733 39.9556 62.7903C40.1576 62.6909 40.4157 62.6475 40.6814 62.6777L40.6808 62.6805C40.9002 62.7079 41.283 62.8453 41.81 63.0353C42.9892 63.4599 44.9857 64.1785 46.4557 64.3795C48.5425 64.6086 50.6739 64.4333 52.7248 63.8412C54.6995 63.2715 56.5996 62.3135 58.3124 60.9562C59.6822 59.8696 60.8336 58.6073 61.7597 57.2258H64.2434ZM55.4617 46.2048L44.7407 40.8007C44.0999 40.4777 43.3546 40.5106 42.7448 40.8908C42.2047 41.2297 41.8568 41.7873 41.7888 42.4151H47.9441L50.1671 43.5357H41.7762V50.5768H54.1371L55.4661 49.9072C56.1602 49.5502 56.5909 48.8416 56.5903 48.0566C56.5903 47.2722 56.1597 46.563 55.4617 46.2048ZM41.7762 50.9954V53.4701C41.7762 54.1897 42.1388 54.8445 42.7448 55.223C43.0763 55.4295 43.4477 55.5333 43.8211 55.5333C44.1342 55.5333 44.4483 55.4603 44.7401 55.313L53.3063 50.9954H41.7762ZM39.6382 56.5616C39.6203 56.716 39.5882 56.8682 39.543 57.0165C39.5223 57.0851 39.5076 57.1549 39.4989 57.2258H37.3108C37.32 57.0022 37.3505 56.7797 37.4033 56.5616H39.6382ZM41.9309 57.2258C42.3305 57.0082 42.7393 56.7764 43.1172 56.5616H45.9243C45.9466 56.7869 45.9139 57.022 45.8208 57.2258H41.9309ZM69.6192 56.5616C69.5223 56.7512 69.4216 56.9396 69.3176 57.1263L69.2615 57.2258H66.7778C66.9237 57.0071 67.0647 56.7858 67.1997 56.5616H69.6192ZM30.568 50.5768C30.6823 50.6993 30.7836 50.8378 30.863 50.9954H27.4277L27.4173 50.9817C27.3258 50.8564 27.248 50.7208 27.1865 50.5768H30.568ZM63.9783 50.5768C63.9587 50.7164 63.938 50.8559 63.9157 50.9954H61.7728C61.7978 50.8565 61.8218 50.7164 61.8436 50.5768H63.9783ZM39.2675 50.5768H51.6278L50.797 50.9954H39.2675V50.5768ZM28.4327 42.4151L28.3951 42.4959L28.3831 42.52C28.3184 42.6409 28.2639 42.7645 28.2209 42.8892C28.1931 42.9683 28.1697 43.0479 28.1501 43.1276C28.1768 43.1424 28.2214 43.1496 28.2753 43.1842L28.277 43.1825C28.4229 43.2858 28.5546 43.405 28.6711 43.5357H25.9925C25.9844 43.505 25.9767 43.4747 25.9702 43.4434L25.9555 43.3786L25.956 43.3078C25.9577 43.0051 25.9974 42.7052 26.0731 42.4151H28.4327ZM60.4547 42.4151C60.5124 42.6008 60.5669 42.7865 60.6191 42.9732C60.6709 43.1605 60.7199 43.3479 60.7656 43.5357H58.5835C58.4784 43.1594 58.3597 42.7859 58.2274 42.4151H60.4547ZM36.4244 42.4151H42.5798L44.8028 43.5357H36.4119V42.6436C36.4119 42.5667 36.4163 42.4904 36.4244 42.4151ZM33.9767 37.7893C33.9298 37.8613 33.8836 37.9344 33.8395 38.008C33.5667 38.4579 33.3402 38.9319 33.1644 39.4235L33.1665 39.4241C33.0822 39.6713 33.0114 39.8998 32.9537 40.1096H30.7062C30.7509 39.9152 30.7999 39.7207 30.8532 39.5257C30.9284 39.2516 31.0149 38.972 31.1124 38.6891L31.1146 38.682C31.2235 38.3771 31.346 38.0794 31.4821 37.7893H33.9767ZM62.0826 37.7893C62.572 38.5397 63.001 39.3153 63.3707 40.1096H61.0046C60.5761 39.3203 60.078 38.5556 59.5085 37.8239L59.4813 37.7893H62.0826Z" fill="white"/>
<circle cx="48" cy="48" r="37.5" stroke="url(#paint0_linear_1821_3465)" stroke-width="5"/>
<defs>
<filter id="filter0_b_1821_3465" x="4" y="4" width="88" height="88" filterUnits="userSpaceOnUse" color-interpolation-filters="sRGB">
<feFlood flood-opacity="0" result="BackgroundImageFix"/>
<feGaussianBlur in="BackgroundImageFix" stdDeviation="2"/>
<feComposite in2="SourceAlpha" operator="in" result="effect1_backgroundBlur_1821_3465"/>
<feBlend mode="normal" in="SourceGraphic" in2="effect1_backgroundBlur_1821_3465" result="shape"/>
</filter>
<linearGradient id="paint0_linear_1821_3465" x1="8" y1="88" x2="87.9987" y2="7.99871" gradientUnits="userSpaceOnUse">
<stop stop-color="#F8772D"/>
<stop offset="1" stop-color="#CD1A70"/>
</linearGradient>
</defs>
</svg>
